<svg width="1616" height="1204" viewBox="0 0 1616 1204" fill="none" xmlns="http://www.w3.org/2000/svg">
<path d="M1615.68 1057.95H0V1058.75H1615.68V1057.95Z" fill="#EBEBEB"/>
<path d="M1453.79 1109.94H1405.64V1110.75H1453.79V1109.94Z" fill="#EBEBEB"/>
<path d="M1070.29 1118.73H1042.21V1119.54H1070.29V1118.73Z" fill="#EBEBEB"/>
<path d="M1392 1079.95H1281.52V1080.76H1392V1079.95Z" fill="#EBEBEB"/>
<path d="M354.254 1096.63H214.691V1097.43H354.254V1096.63Z" fill="#EBEBEB"/>
<path d="M433.357 1096.63H383.013V1097.43H433.357V1096.63Z" fill="#EBEBEB"/>
<path d="M823.22 1085.77H520.507V1086.58H823.22V1085.77Z" fill="#EBEBEB"/>
<path d="M765.832 913.828H141.889C137.001 913.819 132.316 911.871 128.863 908.412C125.41 904.953 123.47 900.265 123.47 895.377V18.2895C123.513 13.4296 125.471 8.78276 128.92 5.35829C132.368 1.93383 137.029 0.00832523 141.889 0H765.832C770.725 0 775.418 1.94394 778.878 5.40419C782.339 8.86443 784.283 13.5575 784.283 18.451V895.377C784.283 900.27 782.339 904.963 778.878 908.424C775.418 911.884 770.725 913.828 765.832 913.828V913.828ZM141.889 0.646274C137.215 0.654834 132.736 2.51744 129.434 5.82525C126.132 9.13307 124.278 13.6158 124.278 18.2895V895.377C124.278 900.05 126.132 904.533 129.434 907.841C132.736 911.149 137.215 913.011 141.889 913.02H765.832C770.508 913.011 774.991 911.15 778.298 907.843C781.605 904.536 783.466 900.053 783.475 895.377V18.2895C783.466 13.6128 781.605 9.13017 778.298 5.82328C774.991 2.51639 770.508 0.654816 765.832 0.646274H141.889Z" fill="#EBEBEB"/>
<path d="M1464.81 913.828H840.831C835.94 913.819 831.252 911.872 827.794 908.414C824.336 904.956 822.389 900.267 822.38 895.377V18.2895C822.431 13.4267 824.397 8.77984 827.851 5.35627C831.304 1.9327 835.968 0.00823443 840.831 0H1464.81C1469.66 0.0168176 1474.31 1.94608 1477.75 5.36964C1481.2 8.79319 1483.15 13.4352 1483.19 18.2895V895.377C1483.19 900.259 1481.26 904.942 1477.81 908.401C1474.37 911.859 1469.69 913.811 1464.81 913.828V913.828ZM840.831 0.646274C836.155 0.654816 831.672 2.51639 828.365 5.82328C825.058 9.13017 823.197 13.6128 823.188 18.2895V895.377C823.197 900.053 825.058 904.536 828.365 907.843C831.672 911.15 836.155 913.011 840.831 913.02H1464.81C1469.48 913.011 1473.97 911.15 1477.27 907.843C1480.58 904.536 1482.44 900.053 1482.45 895.377V18.2895C1482.44 13.6128 1480.58 9.13017 1477.27 5.82328C1473.97 2.51639 1469.48 0.654816 1464.81 0.646274H840.831Z" fill="#EBEBEB"/>
<path d="M1385.54 976.581C1295.39 952.475 1183.65 978.035 945.366 997.423C707.086 1016.81 768.708 872.467 496.563 887.557C224.418 902.647 59.7802 1057.95 59.7802 1057.95H1517.38C1517.38 1057.95 1504.1 1008.18 1385.54 976.581Z" fill="#FAFAFA"/>
<path d="M1219.29 728.122C1284.12 728.122 1336.68 675.562 1336.68 610.727C1336.68 545.891 1284.12 493.331 1219.29 493.331C1154.45 493.331 1101.89 545.891 1101.89 610.727C1101.89 675.562 1154.45 728.122 1219.29 728.122Z" fill="#F5F5F5"/>
<path d="M1251.23 734.053C1261.62 670.055 1218.16 609.753 1154.16 599.365C1090.17 588.976 1029.86 632.435 1019.48 696.433C1009.09 760.431 1052.55 820.733 1116.54 831.121C1180.54 841.51 1240.84 798.051 1251.23 734.053Z" fill="#F5F5F5"/>
<path d="M1301.46 764.747C1329.86 736.341 1329.86 690.286 1301.46 661.88C1273.05 633.475 1227 633.475 1198.59 661.881C1170.18 690.286 1170.18 736.341 1198.59 764.747C1227 793.153 1273.05 793.153 1301.46 764.747Z" fill="#F5F5F5"/>
<path d="M1093.33 592.017C1147.83 592.017 1192.02 547.834 1192.02 493.331C1192.02 438.829 1147.83 394.646 1093.33 394.646C1038.83 394.646 994.644 438.829 994.644 493.331C994.644 547.834 1038.83 592.017 1093.33 592.017Z" fill="#F5F5F5"/>
<path d="M550.784 495.693C552.074 430.871 500.571 377.276 435.748 375.986C370.925 374.696 317.33 426.199 316.04 491.022C314.751 555.845 366.254 609.44 431.077 610.73C495.9 612.02 549.494 560.516 550.784 495.693Z" fill="#F5F5F5"/>
<path d="M636.924 623.826C674.316 570.859 661.69 497.608 608.723 460.217C555.756 422.825 482.505 435.451 445.114 488.418C407.722 541.385 420.348 614.635 473.315 652.027C526.282 689.419 599.532 676.793 636.924 623.826Z" fill="#F5F5F5"/>
<path d="M362.441 628.722C412.842 607.98 436.885 550.306 416.142 499.905C395.399 449.504 337.726 425.461 287.325 446.204C236.924 466.947 212.881 524.621 233.624 575.022C254.367 625.423 312.04 649.465 362.441 628.722Z" fill="#F5F5F5"/>
<path d="M167.804 608.238H213.69L200.635 576.603L167.804 608.238Z" fill="#E0E0E0"/>
<path d="M544.322 584.52L351.087 478.726L194.948 584.52V1057.95H544.322V584.52Z" fill="#F0F0F0"/>
<path d="M544.322 1057.95H1181.87V584.52H544.322L544.322 1057.95Z" fill="#E6E6E6"/>
<path d="M544.322 584.52H1181.87V633.96L544.322 642.07V584.52Z" fill="#E0E0E0"/>
<path d="M448.157 731.805H254.017V1057.95H448.157V731.805Z" fill="#E0E0E0"/>
<path d="M271.143 742.372H236.891V1057.95H271.143V742.372Z" fill="#FAFAFA"/>
<path d="M271.143 1057.95H275.409L275.409 742.372H271.143L271.143 1057.95Z" fill="#E6E6E6"/>
<path d="M465.283 1057.95H469.548L469.548 742.372H465.283L465.283 1057.95Z" fill="#E6E6E6"/>
<path d="M465.283 742.372H431.031V1057.95H465.283V742.372Z" fill="#FAFAFA"/>
<path d="M478.156 744.524L476.979 710.292L222.789 719.035L223.966 753.267L478.156 744.524Z" fill="#FAFAFA"/>
<path d="M482.214 744.396L481.036 710.164L476.999 710.302L478.177 744.535L482.214 744.396Z" fill="#E6E6E6"/>
<path d="M351.087 466.576V486.642L561.739 608.238L573.921 593.019L351.087 466.576Z" fill="#FAFAFA"/>
<path d="M351.087 466.576V486.642L167.804 608.238L155.654 593.019L351.087 466.576Z" fill="#FAFAFA"/>
<path d="M1200.8 593.019V613.085L561.739 608.238L573.921 593.019H1200.8Z" fill="#FAFAFA"/>
<path d="M351.087 466.576H1026.54L1200.8 593.019H573.921L351.087 466.576Z" fill="#EBEBEB"/>
<path d="M768.707 866.004L754.716 858.83L737.816 866.004V1057.95H768.707V866.004Z" fill="#F5F5F5"/>
<path d="M989.151 866.004L975.159 858.83L958.291 866.004V1057.95H989.151V866.004Z" fill="#F5F5F5"/>
<path d="M1264.88 866.004L1250.89 858.83L1234.02 866.004V1057.95H1264.88V866.004Z" fill="#F5F5F5"/>
<path d="M1449.81 866.004L1435.79 858.83L1418.92 866.004V1057.95H1449.81V866.004Z" fill="#F5F5F5"/>
<path d="M1002.58 893.627L715.014 908.497L716.366 934.636L1003.93 919.766L1002.58 893.627Z" fill="#F5F5F5"/>
<path d="M1465.81 895.719L1218.55 908.504L1219.9 934.643L1467.16 921.858L1465.81 895.719Z" fill="#F5F5F5"/>
<path d="M1292.23 917.661L979.106 907.93L978.293 934.091L1291.42 943.822L1292.23 917.661Z" fill="#F5F5F5"/>
<path d="M1325.79 280.869C1310.61 254.081 1285.14 234.984 1261.42 234.984C1254.63 234.847 1247.93 236.626 1242.09 240.117C1236.26 243.609 1231.52 248.672 1228.43 254.728C1220.87 247.998 1211.24 244.063 1201.13 243.58C1184.97 243.58 1174.63 256.505 1174.02 274.698C1166.37 270.67 1157.96 268.302 1149.33 267.75C1133.17 266.91 1121.18 274.213 1116.08 286.395C1112.95 284.397 1109.37 283.209 1105.67 282.938C1096.3 282.453 1091.16 289.95 1094.17 299.644C1094.36 300.258 1094.59 300.839 1094.82 301.421H1356.98C1356.43 291.921 1337.43 281.354 1325.79 280.869Z" fill="#FAFAFA"/>
<path d="M594.667 359.876C681.596 359.876 752.066 289.406 752.066 202.477C752.066 115.548 681.596 45.0774 594.667 45.0774C507.737 45.0774 437.267 115.548 437.267 202.477C437.267 289.406 507.737 359.876 594.667 359.876Z" fill="#F0F0F0"/>
<path d="M1006.63 160.372C982.236 117.363 941.424 86.7295 903.229 86.7295C892.325 86.5148 881.58 89.3701 872.221 94.9695C862.862 100.569 855.266 108.687 850.299 118.397C836.663 107.216 821.217 100.527 806.482 100.527C780.631 100.527 763.925 121.24 762.988 150.452C750.693 144.015 737.188 140.217 723.339 139.304C697.262 137.979 678.1 149.903 669.99 169.258C664.978 166.023 659.233 164.1 653.283 163.668C638.258 162.925 630.018 174.946 634.832 190.488C635.156 191.458 635.511 192.395 635.834 193.332H1056.65C1055.78 178.112 1025.31 161.115 1006.63 160.372Z" fill="#FAFAFA"/>
<path d="M509.197 287.171C508.491 287.071 507.778 287.017 507.065 287.009C499.342 277.315 490.423 271.143 482.765 271.143C480.128 271.156 477.562 272.004 475.437 273.566C473.313 275.127 471.737 277.322 470.938 279.835C456.752 261.029 439.885 248.814 425.505 248.814C413.904 248.814 406.117 256.764 402.692 269.721C395.066 262.354 386.987 257.927 379.814 257.927C367.211 257.927 361.007 271.596 363.237 290.887C357.194 286.793 350.235 284.252 342.976 283.487C330.212 282.614 322.037 290.467 319.84 303.263C317.376 301.24 314.38 299.972 311.212 299.611C304.232 299.127 301.227 306.074 304.103 315.607H544.257C537.568 301.324 522.317 288.786 509.197 287.171Z" fill="#FAFAFA"/>
<path d="M1409.26 137.753H1408.06C1403.6 132.163 1398.37 128.608 1394.04 128.608C1392.53 128.624 1391.06 129.117 1389.84 130.016C1388.62 130.915 1387.72 132.175 1387.25 133.617C1379.11 122.792 1369.38 115.747 1361.11 115.747C1354.42 115.747 1349.9 120.336 1347.99 127.8C1344.6 123.966 1339.9 121.545 1334.81 121.014C1327.54 121.014 1323.98 128.867 1325.11 139.95C1321.67 137.619 1317.71 136.165 1313.58 135.717C1306.24 135.2 1301.53 139.724 1300.27 147.091C1298.84 145.934 1297.11 145.206 1295.29 144.991C1291.28 144.7 1289.57 148.772 1291.22 154.2H1429.46C1425.61 145.896 1416.82 138.69 1409.26 137.753Z" fill="#F5F5F5"/>
<path d="M807.839 1203.87C1153.86 1203.87 1434.37 1187.5 1434.37 1167.3C1434.37 1147.09 1153.86 1130.72 807.839 1130.72C461.817 1130.72 181.311 1147.09 181.311 1167.3C181.311 1187.5 461.817 1203.87 807.839 1203.87Z" fill="#F5F5F5"/>
<path d="M975.03 144.7C968.935 140.876 963.046 136.735 957.386 132.292C956.958 131.132 956.359 130.043 955.609 129.06C959.196 130.353 962.944 131.839 966.628 133.52C966.744 133.553 966.867 133.553 966.984 133.52C967.158 133.52 967.329 133.472 967.477 133.381C967.626 133.289 967.746 133.158 967.824 133.003C967.915 132.779 967.92 132.528 967.836 132.301C967.752 132.074 967.587 131.886 967.371 131.775C962.654 129.674 957.839 127.8 953.412 126.249C934.929 104.567 905.879 81.3979 888.559 83.6599C886.038 82.3996 883.453 81.0425 880.9 79.6207C880.799 79.5578 880.687 79.5161 880.569 79.4983C880.451 79.4806 880.332 79.487 880.217 79.5172C880.102 79.5475 879.994 79.601 879.9 79.6743C879.807 79.7477 879.729 79.8394 879.672 79.9438C879.553 80.1548 879.519 80.4041 879.58 80.6391C879.64 80.8742 879.789 81.0767 879.995 81.204C881.902 82.2704 883.808 83.3044 885.715 84.4354C884.37 84.8918 883.071 85.4761 881.837 86.1803L879.672 85.8572C876.441 84.0153 873.21 81.9796 870.237 79.8145C870.139 79.7466 870.029 79.6985 869.913 79.6731C869.797 79.6477 869.677 79.6454 869.56 79.6664C869.443 79.6874 869.331 79.7313 869.231 79.7955C869.131 79.8598 869.044 79.9431 868.977 80.0407C868.838 80.2429 868.783 80.4915 868.826 80.7332C868.868 80.9749 869.003 81.1903 869.203 81.3333C871.174 82.6905 873.145 83.983 875.148 85.2109L871.432 84.7908C871.195 84.7797 870.963 84.8557 870.778 85.0046C870.594 85.1534 870.47 85.3648 870.431 85.5987C870.413 85.8422 870.49 86.0832 870.647 86.2703C870.804 86.4574 871.028 86.5758 871.271 86.6004C871.271 86.6004 874.502 86.9235 879.058 87.6021H879.349C866.908 96.1006 851.463 116.167 843.966 127.994C859.799 159.597 940.002 176.949 940.002 176.949C940.002 176.949 941.941 161.794 955.642 143.666C955.957 143.192 956.238 142.695 956.482 142.18C959.519 144.668 961.49 146.122 961.523 146.187C961.703 146.233 961.892 146.233 962.072 146.187C962.214 146.186 962.355 146.153 962.483 146.092C962.612 146.03 962.725 145.941 962.815 145.831C962.958 145.633 963.017 145.387 962.981 145.146C962.944 144.904 962.816 144.686 962.621 144.539C962.621 144.539 960.489 142.955 957.257 140.306C957.928 138.557 958.172 136.674 957.968 134.812C966.693 141.501 974.125 145.96 974.125 146.025C974.283 146.069 974.451 146.069 974.61 146.025C974.764 146.03 974.918 145.994 975.054 145.92C975.191 145.846 975.305 145.738 975.385 145.605C975.414 145.436 975.397 145.262 975.334 145.103C975.271 144.943 975.166 144.804 975.03 144.7V144.7Z" fill="#49A078"/>
<path d="M1006.6 178.952C1009.83 179.599 1012 179.922 1012.06 179.922C1012.28 179.924 1012.49 179.847 1012.66 179.704C1012.83 179.561 1012.93 179.363 1012.97 179.146C1012.98 179.027 1012.98 178.906 1012.95 178.789C1012.92 178.672 1012.87 178.563 1012.8 178.466C1012.72 178.37 1012.63 178.289 1012.53 178.228C1012.42 178.167 1012.31 178.128 1012.19 178.112C1012.19 178.112 1008.76 177.563 1003.69 176.497C1002.79 175.753 1001.85 175.042 1000.88 174.299C1004.5 174.299 1008.25 174.105 1012.03 174.299C1012.27 174.299 1012.5 174.204 1012.67 174.034C1012.84 173.865 1012.93 173.634 1012.93 173.394C1012.93 173.157 1012.84 172.928 1012.68 172.754C1012.52 172.58 1012.3 172.474 1012.06 172.457C1007.44 172.457 1002.82 172.457 998.522 172.684C996.971 171.585 995.29 170.551 993.675 169.452C1003.17 170.874 1010.25 171.326 1010.35 171.326C1010.58 171.327 1010.8 171.241 1010.97 171.085C1011.13 170.929 1011.24 170.715 1011.25 170.486C1011.26 170.367 1011.25 170.248 1011.21 170.135C1011.17 170.022 1011.11 169.917 1011.03 169.827C1010.96 169.737 1010.86 169.663 1010.75 169.61C1010.65 169.557 1010.53 169.525 1010.41 169.517C1003.24 168.986 996.102 168.091 989.021 166.835C983.32 163.824 977.262 161.544 970.99 160.049C924.653 149.45 879.866 119.043 848.49 112.548C836.986 110.189 821.249 106.635 806.159 103.726C798.247 100.434 790.561 96.6239 783.152 92.3197C783.048 92.2561 782.933 92.214 782.813 92.1958C782.693 92.1777 782.571 92.1838 782.453 92.214C782.335 92.2441 782.225 92.2976 782.129 92.3713C782.032 92.445 781.951 92.5373 781.891 92.6428C781.773 92.8489 781.741 93.0932 781.801 93.323C781.862 93.5527 782.01 93.7495 782.215 93.8707C785.446 95.7126 788.451 97.3929 791.489 98.944C785.026 97.2637 778.822 96.0681 774.201 95.2925C771.131 93.386 767.964 91.318 764.862 89.0883C764.669 88.9477 764.428 88.8892 764.192 88.9256C763.956 88.9619 763.744 89.0901 763.602 89.2822C763.467 89.483 763.412 89.7269 763.448 89.9661C763.484 90.2052 763.608 90.4223 763.796 90.5747C765.735 91.9642 767.706 93.2891 769.677 94.5816C767.383 94.2262 766.025 94.0646 765.961 94.0646C765.842 94.0519 765.722 94.0627 765.607 94.0964C765.493 94.1301 765.386 94.1861 765.293 94.2611C765.2 94.3361 765.122 94.4287 765.065 94.5336C765.008 94.6385 764.972 94.7536 764.959 94.8725C764.946 94.9913 764.957 95.1114 764.991 95.2261C765.025 95.3407 765.081 95.4476 765.156 95.5406C765.231 95.6337 765.323 95.711 765.428 95.7682C765.533 95.8254 765.648 95.8614 765.767 95.8742C765.767 95.8742 768.998 96.2619 773.522 97.0375C774.718 97.7807 775.881 98.4916 777.012 99.1378C764.83 97.9746 756.881 98.7824 758.561 103.532C762.116 113.711 784.218 126.346 811.717 132.809C807.096 132.615 802.023 132.259 796.982 131.613C796.743 131.594 796.507 131.668 796.32 131.818C796.134 131.968 796.012 132.184 795.98 132.421C795.953 132.656 796.018 132.893 796.163 133.08C796.308 133.267 796.521 133.39 796.756 133.423C804.583 134.368 812.461 134.821 820.345 134.78H821.605C825.256 135.394 828.94 135.943 832.721 136.331C869.267 139.95 937.223 200.215 980.2 211.686C1031.58 225.355 1028.93 199.213 1006.6 178.952Z" fill="#49A078"/>
<path opacity="0.3" d="M1006.6 178.952C1009.83 179.599 1012 179.922 1012.06 179.922C1012.28 179.924 1012.49 179.847 1012.66 179.704C1012.83 179.561 1012.93 179.363 1012.97 179.146C1012.98 179.027 1012.98 178.906 1012.95 178.789C1012.92 178.672 1012.87 178.563 1012.8 178.466C1012.72 178.37 1012.63 178.289 1012.53 178.228C1012.42 178.167 1012.31 178.128 1012.19 178.112C1012.19 178.112 1008.76 177.563 1003.69 176.497C1002.79 175.753 1001.85 175.042 1000.88 174.299C1004.5 174.299 1008.25 174.105 1012.03 174.299C1012.27 174.299 1012.5 174.204 1012.67 174.034C1012.84 173.865 1012.93 173.634 1012.93 173.394C1012.93 173.157 1012.84 172.928 1012.68 172.754C1012.52 172.58 1012.3 172.474 1012.06 172.457C1007.44 172.457 1002.82 172.457 998.522 172.684C996.971 171.585 995.29 170.551 993.675 169.452C1003.17 170.874 1010.25 171.326 1010.35 171.326C1010.58 171.327 1010.8 171.241 1010.97 171.085C1011.13 170.929 1011.24 170.715 1011.25 170.486C1011.26 170.367 1011.25 170.248 1011.21 170.135C1011.17 170.022 1011.11 169.917 1011.03 169.827C1010.96 169.737 1010.86 169.663 1010.75 169.61C1010.65 169.557 1010.53 169.525 1010.41 169.517C1003.24 168.986 996.102 168.091 989.021 166.835C983.32 163.824 977.262 161.544 970.99 160.049C924.653 149.45 879.866 119.043 848.49 112.548C836.986 110.189 821.249 106.635 806.159 103.726C798.247 100.434 790.561 96.6239 783.152 92.3197C783.048 92.2561 782.933 92.214 782.813 92.1958C782.693 92.1777 782.571 92.1838 782.453 92.214C782.335 92.2441 782.225 92.2976 782.129 92.3713C782.032 92.445 781.951 92.5373 781.891 92.6428C781.773 92.8489 781.741 93.0932 781.801 93.323C781.862 93.5527 782.01 93.7495 782.215 93.8707C785.446 95.7126 788.451 97.3929 791.489 98.944C785.026 97.2637 778.822 96.0681 774.201 95.2925C771.131 93.386 767.964 91.318 764.862 89.0883C764.669 88.9477 764.428 88.8892 764.192 88.9256C763.956 88.9619 763.744 89.0901 763.602 89.2822C763.467 89.483 763.412 89.7269 763.448 89.9661C763.484 90.2052 763.608 90.4223 763.796 90.5747C765.735 91.9642 767.706 93.2891 769.677 94.5816C767.383 94.2262 766.025 94.0646 765.961 94.0646C765.842 94.0519 765.722 94.0627 765.607 94.0964C765.493 94.1301 765.386 94.1861 765.293 94.2611C765.2 94.3361 765.122 94.4287 765.065 94.5336C765.008 94.6385 764.972 94.7536 764.959 94.8725C764.946 94.9913 764.957 95.1114 764.991 95.2261C765.025 95.3407 765.081 95.4476 765.156 95.5406C765.231 95.6337 765.323 95.711 765.428 95.7682C765.533 95.8254 765.648 95.8614 765.767 95.8742C765.767 95.8742 768.998 96.2619 773.522 97.0375C774.718 97.7807 775.881 98.4916 777.012 99.1378C764.83 97.9746 756.881 98.7824 758.561 103.532C762.116 113.711 784.218 126.346 811.717 132.809C807.096 132.615 802.023 132.259 796.982 131.613C796.743 131.594 796.507 131.668 796.32 131.818C796.134 131.968 796.012 132.184 795.98 132.421C795.953 132.656 796.018 132.893 796.163 133.08C796.308 133.267 796.521 133.39 796.756 133.423C804.583 134.368 812.461 134.821 820.345 134.78H821.605C825.256 135.394 828.94 135.943 832.721 136.331C869.267 139.95 937.223 200.215 980.2 211.686C1031.58 225.355 1028.93 199.213 1006.6 178.952Z" fill="black"/>
<path d="M818.761 391.737L817.016 394.516L815.465 396.811L812.46 401.205C810.457 404.081 808.356 406.828 806.288 409.574C802.12 415.1 797.693 420.303 793.137 425.505C788.58 430.708 783.766 435.651 778.789 440.563C773.813 445.475 768.611 450.257 763.053 454.781C757.495 459.305 751.84 463.764 745.765 467.965C739.52 472.204 733.047 476.098 726.377 479.63C719.402 483.377 712.167 486.617 704.727 489.324C696.824 492.069 688.707 494.155 680.459 495.561L676.582 496.239C674.293 496.628 671.955 496.628 669.667 496.239C660.404 494.638 651.26 492.414 642.297 489.583C633.742 486.85 625.33 483.69 617.092 480.115C613.053 478.305 609.046 476.464 605.104 474.525C601.162 472.586 597.317 470.453 593.471 468.353C589.626 466.252 585.91 463.926 582.194 461.567C578.478 459.208 574.956 456.785 571.046 453.909C567.473 451.285 564.832 447.588 563.51 443.357C562.189 439.126 562.254 434.583 563.698 430.393C565.142 426.202 567.888 422.583 571.536 420.064C575.183 417.545 579.54 416.259 583.971 416.393H586.33C589.981 416.393 594.117 417.039 598.027 417.33L609.822 418.525L621.487 419.656C625.332 420.076 629.178 420.399 632.958 420.723C640.552 421.53 648.049 421.886 655.287 422.306C662.525 422.726 669.57 422.791 676.226 422.726L665.66 423.308C673.37 420.56 680.691 416.824 687.439 412.192C691.32 409.565 695.063 406.739 698.652 403.726C702.433 400.753 706.149 397.263 709.832 394.032C717.103 387.02 724.373 379.426 731.256 371.412C734.714 367.438 738.042 363.237 741.37 359.133L746.217 352.896L750.418 347.339L751.937 345.335C758.254 336.839 767.628 331.134 778.076 329.424C788.524 327.714 799.227 330.135 807.923 336.174C816.618 342.213 822.625 351.397 824.671 361.785C826.718 372.172 824.645 382.948 818.891 391.834L818.761 391.737Z" fill="#FFC3BD"/>
<path d="M856.31 325.753C846.422 413.387 725.763 487.547 725.763 487.547C700.17 484.736 674.966 442.308 671.347 414.648C671.347 414.648 745.409 311.018 782.958 290.531C817.533 271.434 860.64 285.846 856.31 325.753Z" fill="#263238"/>
<path d="M679.264 398.588C671.605 405.955 666.015 411.513 666.047 419.883C668.891 427.767 687.083 485.544 699.33 493.557C711.577 501.571 729.899 490.94 745.603 479.63C746.831 448.609 699.621 432.162 679.264 398.588Z" fill="#263238"/>
<path opacity="0.2" d="M679.264 398.588C671.605 405.955 666.015 411.513 666.047 419.883C668.891 427.767 687.083 485.544 699.33 493.557C711.577 501.571 729.899 490.94 745.603 479.63C746.831 448.609 699.621 432.162 679.264 398.588Z" fill="white"/>
<path d="M588.786 418.364L589.981 441.888C582.387 465.477 553.758 450.451 553.758 450.451L537.084 448.803C534.162 448.314 531.507 446.806 529.59 444.547C527.674 442.287 526.62 439.422 526.614 436.459L525.677 420.012C525.244 416.639 526.158 413.231 528.221 410.527C530.284 407.823 533.329 406.041 536.696 405.567L551.302 404.63C555.539 404.37 559.776 405.146 563.646 406.892L588.786 418.364Z" fill="#FFC3BD"/>
<path d="M814.981 275.409C866.765 270.487 918.935 271.311 970.538 277.864C1000.36 282.065 1021.43 300.484 1017.81 361.88C1010.48 485.835 1006.15 584.262 990.379 628.822C990.379 628.822 792.975 691.349 727.572 628.337C711.642 479.113 748.77 356.903 773.199 305.202C777.007 297.057 782.855 290.035 790.175 284.815C797.495 279.595 806.04 276.355 814.981 275.409Z" fill="#263238"/>
<path opacity="0.2" d="M825.838 473.2C825.619 473.202 825.406 473.125 825.24 472.982C825.073 472.839 824.964 472.641 824.933 472.424C823.802 465.024 826.678 456.849 829.198 449.611C830.871 445.459 832.032 441.118 832.656 436.685C832.85 433.454 832.656 429.997 832.656 426.798C832.207 421.433 832.633 416.031 833.916 410.802L834.853 407.862C836.727 402.078 838.085 397.877 836.695 393.579C835.758 390.703 837.632 384.208 839.636 377.422C841.413 371.283 843.416 364.303 842.544 362.009C840.476 356.548 840.314 351.765 845.097 340.682C846.991 335.881 847.669 330.685 847.068 325.559C846.491 321.708 847.029 317.772 848.619 314.217C848.673 314.11 848.748 314.015 848.841 313.938C848.933 313.862 849.04 313.805 849.155 313.772C849.271 313.738 849.391 313.729 849.51 313.745C849.629 313.76 849.744 313.8 849.847 313.862C850.057 313.978 850.212 314.172 850.279 314.402C850.345 314.632 850.318 314.88 850.202 315.09C848.784 318.351 848.335 321.952 848.91 325.462C849.522 330.878 848.789 336.36 846.777 341.425C842.221 351.959 842.318 356.257 844.257 361.363C845.355 364.206 843.416 371.057 841.381 377.939C839.636 383.95 837.665 390.865 838.44 393.094C840.024 397.974 838.44 402.627 836.598 408.54C836.275 409.477 835.984 410.447 835.661 411.449C834.436 416.489 834.043 421.695 834.498 426.862C834.498 430.094 834.659 433.325 834.498 436.879C833.864 441.502 832.66 446.028 830.911 450.354C828.455 457.366 825.676 465.348 826.743 472.263C826.761 472.382 826.755 472.503 826.726 472.62C826.697 472.737 826.644 472.846 826.572 472.943C826.5 473.039 826.409 473.12 826.305 473.181C826.201 473.241 826.086 473.281 825.967 473.297L825.838 473.2Z" fill="white"/>
<path d="M832.85 886.361C854.597 802.54 911.404 702.626 875.472 621.939L719.365 621.455C719.365 621.455 715.487 787.579 714.421 865.971C713.29 947.466 720.302 1048.87 720.302 1048.87L784.186 1053.71C784.186 1053.71 827.744 980.426 832.85 886.361Z" fill="#49A078"/>
<path d="M787.191 1056.23L718.169 1051.16C717.582 1051.12 717.028 1050.87 716.612 1050.46C716.196 1050.04 715.945 1049.49 715.907 1048.9L714.421 1023.31C714.398 1022.95 714.456 1022.59 714.589 1022.26C714.722 1021.92 714.927 1021.62 715.19 1021.38C715.452 1021.14 715.766 1020.95 716.108 1020.84C716.45 1020.74 716.812 1020.7 717.167 1020.75L793.718 1030.8C794.065 1030.84 794.399 1030.96 794.696 1031.15C794.993 1031.33 795.245 1031.58 795.436 1031.87C795.627 1032.16 795.752 1032.49 795.801 1032.84C795.85 1033.19 795.823 1033.54 795.722 1033.87L789.679 1054.36C789.551 1054.91 789.231 1055.41 788.776 1055.75C788.321 1056.09 787.76 1056.26 787.191 1056.23Z" fill="#263238"/>
<path opacity="0.2" d="M876.021 701.204C876.63 721.012 875.831 740.838 873.63 760.532C866.004 786.9 856.245 813.3 847.52 838.892C836.049 766.542 836.017 682.042 876.021 701.204Z" fill="black"/>
<path d="M996.454 859.25C1004.01 774.492 1032 660.425 1004.95 621.455H818.115C818.115 621.455 855.308 790.39 870.592 868.556C886.458 949.857 931.988 1053.33 931.988 1053.33H992.511C992.511 1053.33 1015.68 955.932 996.454 859.25Z" fill="#49A078"/>
<path d="M996.809 1055.78H928.24C927.696 1055.78 927.171 1055.58 926.753 1055.24C926.335 1054.89 926.05 1054.41 925.945 1053.87L921.454 1029.54C921.392 1029.18 921.412 1028.8 921.512 1028.44C921.613 1028.08 921.792 1027.75 922.036 1027.47C922.28 1027.19 922.583 1026.96 922.924 1026.81C923.265 1026.66 923.634 1026.59 924.007 1026.6L998.619 1029.83C998.932 1029.85 999.238 1029.93 999.52 1030.06C999.802 1030.2 1000.05 1030.39 1000.26 1030.63C1000.47 1030.86 1000.63 1031.13 1000.73 1031.43C1000.83 1031.73 1000.87 1032.04 1000.85 1032.35L999.297 1053.39C999.264 1054.03 998.989 1054.63 998.527 1055.08C998.064 1055.52 997.45 1055.77 996.809 1055.78V1055.78Z" fill="#263238"/>
<path d="M832.204 288.948C838.149 283.131 844.386 286.524 847.262 277.735C848.544 270.832 847.402 263.698 844.03 257.539L914.797 219.344C913.408 245.389 912.374 265.941 923.91 276.313C927.141 295.701 894.375 312.02 851.915 309.984C831.945 309.047 823.641 297.285 832.204 288.948Z" fill="#FFC3BD"/>
<path opacity="0.2" d="M845.032 259.736L900.935 245.777C886.814 267.976 861.351 280.158 847.682 274.859C848.121 269.674 847.209 264.463 845.032 259.736V259.736Z" fill="black"/>
<path d="M841.962 142.503C833.77 148.488 825.947 154.962 818.535 161.891C821.231 162.715 824.112 162.715 826.807 161.891C819.828 174.041 822.542 190.682 826.064 195.626C843.384 179.372 841.962 142.503 841.962 142.503Z" fill="#263238"/>
<path d="M868.169 132.292C895.248 134.974 933.248 159.015 929.92 188.291C926.075 222.317 916.995 244.387 893.987 255.794C847.94 278.414 825.483 256.602 821.734 221.574C818.341 190.068 829.909 128.543 868.169 132.292Z" fill="#FFC3BD"/>
<path d="M914.474 153.877C916.251 168.515 914.151 182.766 906.331 186.74C916.865 187.063 920.646 184.995 920.646 184.995C920.646 184.995 901.936 199.213 914.474 208.326C923.867 202.59 932.045 195.07 938.548 186.191C938.548 186.191 936.156 167.32 914.474 153.877Z" fill="#263238"/>
<path opacity="0.2" d="M881.159 186.578C885.421 185.168 890.069 185.505 894.084 187.516C889.756 188.054 885.364 187.736 881.159 186.578V186.578Z" fill="black"/>
<path opacity="0.2" d="M881.159 189.681C883.165 189.456 885.197 189.671 887.111 190.313C889.026 190.955 890.777 192.008 892.242 193.397C888.321 192.983 884.537 191.714 881.159 189.681Z" fill="black"/>
<path d="M859.282 222.963C857.724 222.966 856.169 222.848 854.629 222.608C854.392 222.568 854.179 222.439 854.035 222.246C853.89 222.054 853.825 221.813 853.854 221.574C853.869 221.451 853.91 221.333 853.972 221.227C854.035 221.121 854.119 221.028 854.219 220.956C854.319 220.883 854.433 220.832 854.553 220.805C854.674 220.777 854.799 220.775 854.92 220.798C858.78 221.469 862.745 221.219 866.49 220.068C870.235 218.917 873.656 216.897 876.473 214.174C876.649 213.999 876.887 213.9 877.136 213.9C877.384 213.9 877.622 213.999 877.798 214.174C877.964 214.348 878.057 214.58 878.057 214.82C878.057 215.061 877.964 215.292 877.798 215.467C875.363 217.882 872.472 219.789 869.294 221.076C866.115 222.363 862.712 223.005 859.282 222.963V222.963Z" fill="#263238"/>
<path d="M938.354 218.246C935.985 221.449 933.007 224.154 929.591 226.205C926.176 228.257 922.389 229.615 918.449 230.202C907.85 231.656 903.875 221.833 907.947 212.591C911.598 204.254 921.486 193.429 931.6 196.208C941.714 198.987 944.106 210.232 938.354 218.246Z" fill="#FFC3BD"/>
<path d="M821.799 197.371C816.693 219.021 809.843 237.666 816.112 245.841C816.882 244.347 817.826 242.947 818.923 241.673C819.187 246.97 820.7 252.129 823.34 256.728C825.979 261.328 829.67 265.238 834.11 268.138C834.712 266.165 835.059 264.124 835.144 262.063C835.144 262.063 849.524 270.238 881.159 263.388C880.308 264.55 879.715 265.88 879.419 267.29C879.124 268.7 879.133 270.157 879.446 271.563C889.484 268.996 898.208 262.788 903.923 254.146C909.638 245.505 911.936 235.047 910.37 224.805C909.257 216.566 910.941 208.191 915.153 201.023C915.153 201.023 910.532 196.692 905.071 203.995C899.61 211.298 894.569 245.777 878.089 240.865C863.968 236.664 858.152 234.79 849.653 241.221C839.571 232.108 829.392 227.81 825.579 230.396C821.96 225.484 821.411 208.035 821.799 197.371Z" fill="#263238"/>
<path d="M882.581 260.9C878.024 265.908 862.514 270.271 855.728 270.981C858.169 268.848 859.96 266.071 860.898 262.968L882.581 260.9Z" fill="#263238"/>
<path d="M875.181 187.419C874.987 190.391 873.242 192.686 871.271 192.556C869.3 192.427 868.04 189.874 868.04 186.869C868.04 183.864 869.978 181.602 871.949 181.764C873.921 181.925 875.375 184.413 875.181 187.419Z" fill="#263238"/>
<path d="M840.202 185.255C840.381 182.28 838.938 179.772 836.979 179.654C835.019 179.536 833.285 181.852 833.106 184.827C832.926 187.802 834.37 190.309 836.329 190.428C838.289 190.546 840.022 188.23 840.202 185.255Z" fill="#263238"/>
<path d="M847.843 188.194L848.005 213.302C848.005 213.302 839.927 215.305 835.08 210.911C837.303 202.364 841.7 194.538 847.843 188.194Z" fill="#ED847E"/>
<path d="M880.513 179.793C880.811 179.856 881.119 179.856 881.417 179.793C881.634 179.717 881.833 179.599 882.003 179.445C882.172 179.291 882.31 179.104 882.406 178.896C882.502 178.688 882.556 178.463 882.564 178.234C882.572 178.005 882.533 177.777 882.451 177.563C881.568 174.91 880.067 172.504 878.073 170.544C876.079 168.583 873.648 167.124 870.98 166.285C870.755 166.228 870.521 166.216 870.291 166.249C870.061 166.283 869.841 166.363 869.642 166.483C869.443 166.604 869.271 166.763 869.134 166.951C868.998 167.139 868.9 167.352 868.847 167.578C868.749 168.036 868.833 168.514 869.08 168.912C869.327 169.309 869.718 169.596 870.172 169.711C872.277 170.394 874.189 171.568 875.751 173.135C877.313 174.703 878.48 176.619 879.155 178.726C879.28 179 879.468 179.239 879.704 179.425C879.94 179.61 880.217 179.737 880.513 179.793V179.793Z" fill="#263238"/>
<path d="M822.251 172.878C822.541 172.872 822.825 172.795 823.079 172.654C823.332 172.513 823.547 172.313 823.705 172.07C824.814 170.167 826.365 168.56 828.227 167.385C830.089 166.209 832.207 165.5 834.401 165.316C834.867 165.299 835.307 165.1 835.628 164.762C835.948 164.423 836.123 163.972 836.114 163.507C836.089 163.044 835.887 162.608 835.551 162.289C835.214 161.971 834.768 161.793 834.304 161.794C831.536 161.994 828.856 162.86 826.494 164.317C824.131 165.774 822.155 167.779 820.733 170.163C820.489 170.559 820.411 171.034 820.513 171.487C820.616 171.94 820.892 172.335 821.282 172.587C821.572 172.771 821.908 172.871 822.251 172.878Z" fill="#263238"/>
<path d="M1004.95 621.454C1008.88 603.801 1011.05 585.8 1011.41 567.717C1011.53 564.457 1010.72 561.232 1009.08 558.413C1007.44 555.594 1005.03 553.296 1002.14 551.786C988.981 544.651 977.872 534.259 969.878 521.602C961.884 508.946 957.271 494.45 956.482 479.501C956.256 475.53 954.876 471.712 952.511 468.515C950.146 465.317 946.899 462.88 943.169 461.502C885.166 440.531 802.831 444.958 768.675 452.067C764.326 452.933 760.384 455.211 757.463 458.548C754.541 461.884 752.803 466.092 752.519 470.518C750.806 497.79 744.602 539.507 727.928 548.523C725.486 549.733 723.347 551.476 721.669 553.624C719.991 555.772 718.817 558.269 718.234 560.931C712.676 590.498 719.526 621.454 719.526 621.454C719.526 621.454 825.321 639.324 1004.95 621.454Z" fill="#49A078"/>
<path opacity="0.2" d="M837.148 515.337H836.921C835.37 514.981 799.502 506.418 787.966 485.867C787.896 485.732 787.859 485.582 787.859 485.43C787.859 485.278 787.896 485.129 787.966 484.994C788.041 484.866 788.144 484.755 788.267 484.672C788.39 484.588 788.53 484.532 788.677 484.509C813.979 481.666 884.875 483.54 907.462 490.261C907.625 490.319 907.769 490.418 907.883 490.548C907.996 490.678 908.074 490.835 908.108 491.004C908.127 491.176 908.101 491.349 908.033 491.508C907.965 491.666 907.858 491.805 907.72 491.909C886.103 507.258 837.794 515.272 837.309 515.337H837.148ZM790.293 486.254C801.764 504.544 834.498 512.913 837.18 513.592C840.411 513.042 883.776 505.513 905.038 491.554C881.288 485.317 815.853 483.605 790.293 486.157V486.254Z" fill="black"/>
<path opacity="0.2" d="M838.44 570.657H837.6C810.231 570.657 794.979 566.974 788.128 558.701C781.278 550.429 783.507 537.568 786.577 521.605C788.337 513.118 789.642 504.543 790.487 495.916C790.519 495.676 790.64 495.457 790.825 495.302C791.01 495.146 791.247 495.066 791.489 495.076C791.606 495.084 791.721 495.116 791.826 495.169C791.931 495.223 792.024 495.297 792.1 495.388C792.176 495.479 792.232 495.584 792.266 495.697C792.299 495.81 792.31 495.928 792.297 496.045C791.461 504.729 790.145 513.359 788.354 521.896C785.381 537.407 783.023 549.621 789.55 557.441C796.077 565.261 810.812 568.719 837.6 568.719H838.44C869.041 568.719 885.941 568.719 894.44 559.542C902.938 550.365 903.1 532.237 900.902 499.212C900.893 498.974 900.975 498.741 901.131 498.561C901.287 498.381 901.506 498.267 901.743 498.243C901.984 498.233 902.221 498.313 902.406 498.469C902.592 498.624 902.712 498.843 902.744 499.083C905.103 533.368 904.683 551.334 895.862 560.802C887.04 570.27 869.558 570.657 838.44 570.657Z" fill="black"/>
<path d="M837.6 505.901C839.617 505.901 841.252 504.266 841.252 502.25C841.252 500.233 839.617 498.598 837.6 498.598C835.584 498.598 833.949 500.233 833.949 502.25C833.949 504.266 835.584 505.901 837.6 505.901Z" fill="white"/>
<path d="M793.169 435.07L770.549 436.815C769.039 436.922 767.547 436.429 766.397 435.443C765.248 434.457 764.534 433.057 764.41 431.548V431.548C764.303 430.04 764.797 428.552 765.784 427.408C766.771 426.263 768.17 425.556 769.677 425.44L792.296 423.728C793.042 423.666 793.793 423.753 794.504 423.983C795.216 424.214 795.875 424.583 796.443 425.07C797.011 425.557 797.477 426.152 797.814 426.82C798.15 427.488 798.351 428.216 798.404 428.963V428.963C798.461 429.707 798.371 430.456 798.139 431.166C797.907 431.876 797.537 432.533 797.051 433.101C796.565 433.668 795.972 434.133 795.306 434.471C794.64 434.809 793.914 435.013 793.169 435.07V435.07Z" fill="white"/>
<path d="M774.072 451.744L774.718 426.087C774.789 424.341 775.478 422.678 776.662 421.394C777.845 420.11 779.447 419.288 781.181 419.075V419.075C781.99 418.994 782.808 419.09 783.577 419.355C784.346 419.62 785.05 420.047 785.639 420.609C786.228 421.17 786.688 421.852 786.99 422.608C787.291 423.363 787.426 424.175 787.385 424.988L786.706 450.645C786.641 452.392 785.955 454.059 784.77 455.344C783.585 456.63 781.98 457.45 780.243 457.657V457.657C779.435 457.738 778.619 457.642 777.851 457.377C777.083 457.112 776.382 456.684 775.795 456.122C775.209 455.56 774.751 454.878 774.453 454.122C774.156 453.366 774.026 452.555 774.072 451.744V451.744Z" fill="white"/>
<path d="M809.293 275.118C802.023 283.875 773.748 323.847 771.68 429.77C771.662 430.163 771.797 430.547 772.056 430.842C772.315 431.137 772.678 431.321 773.07 431.354C778.178 431.459 783.288 431.178 788.354 430.514C788.72 430.474 789.058 430.3 789.302 430.025C789.547 429.75 789.681 429.395 789.679 429.027C789.679 417.33 791.23 330.115 825.612 274.568C825.751 274.334 825.825 274.066 825.825 273.794C825.825 273.521 825.752 273.253 825.614 273.019C825.475 272.784 825.275 272.591 825.036 272.46C824.797 272.329 824.527 272.265 824.255 272.274C819.392 272.399 814.572 273.215 809.94 274.698C809.69 274.775 809.466 274.921 809.293 275.118V275.118Z" fill="#49A078"/>
<path d="M849.653 309.822C862.417 308.239 872.983 296.218 872.983 296.218C872.983 296.218 906.622 287.946 915.831 271.595C916.765 269.897 918.31 268.618 920.152 268.018C921.995 267.418 923.997 267.541 925.751 268.364C929.311 269.835 932.65 271.792 935.672 274.181C935.672 274.181 913.505 330.277 849.653 309.822Z" fill="#263238"/>
<path d="M872.983 296.218C872.983 296.218 885.327 310.76 884.842 328.532C915.54 315.93 937.901 284.876 938.806 272.145C925.881 263.065 918.029 264.907 918.029 264.907C918.029 264.907 900.288 288.205 872.983 296.218Z" fill="#49A078"/>
<path d="M849.653 309.822C845.097 306.171 845.355 297.769 848.005 295.54C846.906 288.172 848.005 284.295 847.779 272.92C836.211 272.177 826.064 285.006 822.413 293.827C818.761 302.649 841.866 311.664 849.653 309.822Z" fill="#263238"/>
<path d="M848.005 295.54C839.797 299.547 832.139 313.926 833.852 322.651C820.668 313.829 819.666 283.875 836.081 273.017C840.024 270.982 847.779 273.017 847.779 273.017C847.779 273.017 849.588 288.754 848.005 295.54Z" fill="#49A078"/>
<path d="M859.832 352.832C859.282 356.063 857.505 358.616 855.857 358.325C854.209 358.034 853.337 355.094 853.886 351.862C854.435 348.631 856.213 346.078 857.861 346.369C859.509 346.66 860.381 349.503 859.832 352.832Z" fill="white"/>
<path d="M854.791 388.668C854.565 391.899 853.014 394.646 851.333 394.516C849.653 394.387 848.554 391.576 848.781 388.054C849.007 384.531 850.59 382.108 852.27 382.237C853.951 382.366 855.049 385.339 854.791 388.668Z" fill="white"/>
<path d="M849.394 427.218C849.136 430.449 847.585 433.196 845.937 433.066C844.289 432.937 843.126 430.126 843.384 426.604C843.643 423.082 845.194 420.658 846.842 420.755C848.49 420.852 849.653 423.889 849.394 427.218Z" fill="white"/>
<path d="M1039.3 332.119L1041.6 334.445L1043.5 336.449L1047.12 340.359C1049.48 342.976 1051.71 345.626 1053.91 348.276C1058.37 353.543 1062.47 359.036 1066.51 364.626C1070.55 370.217 1074.33 376.033 1078.01 381.979C1081.7 387.924 1085.15 394.064 1088.35 400.462C1091.55 406.86 1094.62 413.387 1097.34 420.27C1100.08 427.291 1102.44 434.453 1104.41 441.726C1106.5 449.351 1108.03 457.116 1109 464.96C1109.98 473.281 1110.23 481.671 1109.74 490.035L1109.49 494.074C1109.32 496.361 1108.8 498.608 1107.94 500.731C1104.06 510.086 1099.16 518.983 1093.33 527.26C1087.92 534.982 1081.81 542.187 1075.07 548.781C1068.62 555.094 1061.68 560.896 1054.33 566.134C1050.71 568.719 1046.96 571.078 1043.15 573.372C1041.21 574.503 1039.27 575.602 1037.3 576.603L1030.84 579.835C1027.62 581.451 1024.01 582.126 1020.43 581.782C1016.84 581.439 1013.43 580.091 1010.57 577.894C1007.72 575.697 1005.55 572.739 1004.3 569.361C1003.06 565.983 1002.79 562.322 1003.53 558.799L1005.76 548.07C1006.06 547.347 1006.43 546.654 1006.86 546.002L1008.22 543.74L1010.99 539.12C1012.9 536.082 1014.65 532.948 1016.42 529.878C1018.2 526.808 1019.85 523.738 1021.5 520.701C1023.14 517.663 1024.73 514.658 1026.09 511.621C1031.5 500.942 1035.41 489.568 1037.72 477.821L1035.91 488.484C1035.51 484.65 1034.84 480.849 1033.9 477.11C1032.83 472.925 1031.53 468.804 1030 464.766C1028.41 460.565 1026.41 456.268 1024.28 451.841C1022.14 447.414 1019.75 443.116 1017.2 438.915C1012 430.255 1006.21 421.498 999.879 413.064C996.647 408.767 993.416 404.598 990.185 400.43L985.144 394.226L980.684 388.926L979.037 386.955C972.305 378.881 968.949 368.521 969.667 358.034C970.385 347.546 975.121 337.74 982.89 330.659C990.659 323.578 1000.86 319.767 1011.37 320.021C1021.88 320.275 1031.88 324.574 1039.3 332.022V332.119Z" fill="#FFC3BD"/>
<path d="M983.302 281.128C1066.54 310.21 1111.94 444.441 1111.94 444.441C1103.51 468.547 1056.65 483.766 1028.77 481.084C1028.77 481.084 944.235 385.824 932.634 344.624C921.874 306.494 945.398 267.686 983.302 281.128Z" fill="#263238"/>
<path d="M1014.87 469.645C1020.37 478.758 1024.57 485.447 1032.71 487.256C1041.01 486.254 1101.41 481.407 1111.94 471.261C1122.48 461.115 1116.18 440.886 1108.71 423.049C1078.69 414.938 1052.16 457.269 1014.87 469.645Z" fill="#263238"/>
<path opacity="0.2" d="M1014.87 469.645C1020.37 478.758 1024.57 485.447 1032.71 487.256C1041.01 486.254 1101.41 481.407 1111.94 471.261C1122.48 461.115 1116.18 440.886 1108.71 423.049C1078.69 414.938 1052.16 457.269 1014.87 469.645Z" fill="white"/>
<path d="M1021.46 544.742L1031.16 566.198C1032.77 590.918 1000.62 587.461 1000.62 587.461L984.465 592.049C981.572 592.67 978.552 592.244 975.943 590.848C973.334 589.451 971.304 587.175 970.215 584.423L963.3 569.462C961.659 566.483 961.257 562.978 962.183 559.706C963.108 556.434 965.286 553.658 968.244 551.98L981.493 545.744C985.335 543.937 989.563 543.105 993.804 543.32L1021.46 544.742Z" fill="#FFC3BD"/>
<path d="M933.862 444.764L911.824 439.852C910.36 439.513 909.088 438.61 908.284 437.341C907.479 436.071 907.208 434.535 907.527 433.066V433.066C907.859 431.596 908.758 430.316 910.029 429.505C911.3 428.695 912.839 428.418 914.312 428.736L936.35 433.648C937.821 433.987 939.099 434.894 939.904 436.171C940.709 437.449 940.977 438.992 940.648 440.466V440.466C940.316 441.935 939.416 443.212 938.144 444.018C936.871 444.823 935.332 445.092 933.862 444.764V444.764Z" fill="white"/>
<path d="M916.413 459.305L917.318 433.454C917.404 431.768 918.112 430.174 919.306 428.98C920.5 427.786 922.094 427.077 923.78 426.991V426.991C924.613 426.99 925.438 427.159 926.203 427.488C926.968 427.817 927.658 428.299 928.23 428.904C928.802 429.509 929.244 430.225 929.529 431.008C929.814 431.79 929.936 432.623 929.888 433.454L928.983 459.305C928.897 460.991 928.189 462.586 926.995 463.78C925.801 464.973 924.206 465.682 922.52 465.768V465.768C921.687 465.769 920.863 465.6 920.098 465.271C919.333 464.942 918.643 464.46 918.071 463.855C917.499 463.25 917.057 462.534 916.772 461.751C916.487 460.969 916.364 460.136 916.413 459.305V459.305Z" fill="white"/>
<path d="M948.112 273.47C940.907 280.966 917.35 325.721 915.153 433.68C915.135 433.986 915.213 434.29 915.375 434.551C915.537 434.811 915.775 435.015 916.057 435.134C920.888 436.892 925.847 438.274 930.889 439.271C931.104 439.318 931.327 439.318 931.542 439.269C931.757 439.22 931.958 439.125 932.131 438.989C932.304 438.852 932.445 438.68 932.543 438.483C932.641 438.285 932.695 438.069 932.699 437.849C933.378 423.275 938.903 322.005 964.592 277.606C964.704 277.413 964.772 277.197 964.789 276.975C964.806 276.753 964.774 276.529 964.693 276.321C964.612 276.113 964.486 275.926 964.323 275.774C964.16 275.621 963.965 275.508 963.752 275.441C959.035 273.901 954.109 273.094 949.147 273.05C948.954 273.042 948.763 273.076 948.584 273.148C948.406 273.221 948.245 273.33 948.112 273.47Z" fill="#49A078"/>
<path d="M778.757 1139.7C776.269 1115.21 786.932 1051.74 786.932 1051.74L718.298 1046.96C718.298 1046.96 725.957 1129.2 718.298 1138.28C707.667 1145.84 679.005 1150.36 679.005 1150.36C679.005 1150.36 675.386 1160.06 677.583 1167.2H776.592C777.527 1167.2 778.451 1166.99 779.293 1166.58C780.134 1166.17 780.873 1165.58 781.452 1164.85C782.03 1164.11 782.435 1163.26 782.634 1162.34C782.834 1161.43 782.823 1160.48 782.602 1159.57C780.888 1153.04 779.603 1146.4 778.757 1139.7V1139.7Z" fill="#263238"/>
<path d="M1002.33 1139.7C996.292 1115.21 997.875 1051.74 997.875 1051.74L928.531 1046.96C928.531 1046.96 947.919 1129.2 941.65 1138.28C935.122 1143.24 927.988 1147.36 920.42 1150.52C919.165 1156.12 919.501 1161.95 921.389 1167.36H999.717C1000.71 1167.32 1001.69 1167.09 1002.6 1166.66C1003.5 1166.23 1004.3 1165.62 1004.96 1164.87C1005.61 1164.12 1006.11 1163.24 1006.42 1162.29C1006.72 1161.34 1006.83 1160.34 1006.73 1159.35C1005.61 1152.72 1004.15 1146.17 1002.33 1139.7V1139.7Z" fill="#263238"/>
<path d="M717.62 611.082C717.62 611.082 714.388 624.524 719.042 635.285C790.972 654.673 946.691 648.21 1011.19 634.444C1011.96 626.24 1010.58 617.975 1007.18 610.468C1007.18 610.468 922.682 623.878 841.252 621.842C759.821 619.806 717.62 611.082 717.62 611.082Z" fill="#263238"/>
<path d="M767.383 609.951C762.956 621.81 765.089 644.914 767.383 649.147C778.176 652.96 781.956 651.765 781.956 651.765C781.956 651.765 778.466 623.005 781.956 611.922C777.279 610.296 772.324 609.626 767.383 609.951V609.951Z" fill="#49A078"/>
<path d="M927.4 614.346C931.827 626.172 929.694 649.309 927.4 653.542C916.607 657.323 912.826 656.159 912.826 656.159C912.826 656.159 916.316 627.4 912.826 616.317C917.503 614.691 922.459 614.021 927.4 614.346Z" fill="#49A078"/>
<path d="M914.474 153.877C901.807 153.328 868.072 143.731 868.072 143.731C871.054 141.72 874.46 140.426 878.024 139.95C861.092 140.241 852.174 148.61 828.229 143.892C831.751 137.429 850.849 127.994 875.601 132.13C890.643 134.782 904.344 142.447 914.474 153.877V153.877Z" fill="#263238"/>
<path d="M543.191 267.653C529.458 258.315 527.648 272.113 527.648 272.113C527.648 342.524 575.376 1094.1 579.738 1162.35C579.707 1163.57 580.135 1164.75 580.937 1165.67C581.739 1166.59 582.857 1167.17 584.068 1167.3H591.339C591.974 1167.22 592.587 1167.01 593.141 1166.69C593.695 1166.37 594.179 1165.94 594.562 1165.42C594.945 1164.91 595.221 1164.33 595.372 1163.7C595.524 1163.08 595.547 1162.43 595.442 1161.8C590.821 1089.97 543.03 337.903 543.191 267.653Z" fill="#49A078"/>
<path d="M538.764 334.607C535.797 334.761 532.825 334.411 529.975 333.573C529.118 333.275 528.376 332.716 527.854 331.973C527.333 331.231 527.057 330.344 527.067 329.437C526.291 315.316 523.254 261.029 522.349 253.468C504.221 255.568 478.435 264.81 464.863 206.031C451.291 147.253 450.257 77.1971 445.895 54.4806C462.31 69.8942 470.68 135.652 476.496 169.032C482.312 202.412 490.488 217.696 503.51 217.179C516.532 216.662 526.13 205.223 520.927 163.507C515.725 121.79 500.86 39.4871 496.078 23.6858C512.073 30.6009 533.271 105.116 539.798 167.32C546.326 229.523 565.649 216.178 575.602 205.223C585.554 194.269 568.88 74.3535 563.096 49.2135C577.993 73.5456 582.484 99.4611 589.432 149.709C596.379 199.956 608.82 251.432 545.388 250.624C546.649 265.1 549.072 314.346 549.751 328.758C549.888 329.753 549.659 330.764 549.106 331.602C548.553 332.441 547.714 333.049 546.746 333.314L538.764 334.607Z" fill="#49A078"/>
<path opacity="0.6" d="M538.764 334.607C535.797 334.761 532.825 334.411 529.975 333.573C529.118 333.275 528.376 332.716 527.854 331.973C527.333 331.231 527.057 330.344 527.067 329.437C526.291 315.316 523.254 261.029 522.349 253.468C504.221 255.568 478.435 264.81 464.863 206.031C451.291 147.253 450.257 77.1971 445.895 54.4806C462.31 69.8942 470.68 135.652 476.496 169.032C482.312 202.412 490.488 217.696 503.51 217.179C516.532 216.662 526.13 205.223 520.927 163.507C515.725 121.79 500.86 39.4871 496.078 23.6858C512.073 30.6009 533.271 105.116 539.798 167.32C546.326 229.523 565.649 216.178 575.602 205.223C585.554 194.269 568.88 74.3535 563.096 49.2135C577.993 73.5456 582.484 99.4611 589.432 149.709C596.379 199.956 608.82 251.432 545.388 250.624C546.649 265.1 549.072 314.346 549.751 328.758C549.888 329.753 549.659 330.764 549.106 331.602C548.553 332.441 547.714 333.049 546.746 333.314L538.764 334.607Z" fill="white"/>
</svg>
