<svg width="653" height="637" viewBox="0 0 653 637" fill="none" xmlns="http://www.w3.org/2000/svg">
<path d="M332.102 636.902C509.329 636.902 653 600.621 653 555.867C653 511.112 509.329 474.832 332.102 474.832C154.875 474.832 11.2042 511.112 11.2042 555.867C11.2042 600.621 154.875 636.902 332.102 636.902Z" fill="#49A078"/>
<path opacity="0.5" d="M332.102 636.902C509.329 636.902 653 600.621 653 555.867C653 511.112 509.329 474.832 332.102 474.832C154.875 474.832 11.2042 511.112 11.2042 555.867C11.2042 600.621 154.875 636.902 332.102 636.902Z" fill="white"/>
<path d="M533.731 163.937V367.089L525.966 366.13V170.302C525.963 168.431 525.544 166.583 524.741 164.893C523.938 163.202 522.77 161.711 521.321 160.527C509.978 151.299 480.987 128.962 470.785 133.317C461.223 137.398 418.802 276.705 398.002 346.716C390.983 370.317 386.43 386.046 386.43 386.046L376.365 387.843C376.365 387.843 380.933 370.652 388.059 345.011C408.311 272.198 449.3 131.398 465.364 124.105C465.668 123.967 465.992 123.879 466.323 123.846C470.891 123.405 476.769 124.973 483.073 127.698C484.885 128.475 486.742 129.343 488.63 130.302C491.676 131.825 494.843 133.576 497.949 135.433C499.609 136.423 501.268 137.428 502.913 138.479C505.958 140.397 508.897 142.362 511.714 144.295L514.911 146.518C517.88 148.65 520.652 150.675 523.088 152.502C525.524 154.33 527.275 155.7 528.889 156.964L531.143 158.745C531.87 159.321 532.466 160.046 532.891 160.87C533.316 161.694 533.561 162.6 533.609 163.526C533.664 163.659 533.705 163.797 533.731 163.937Z" fill="#49A078" stroke="#263238" stroke-miterlimit="10"/>
<path d="M541.923 118.212L483.164 127.683L467.938 130.135C467.725 130.149 467.511 130.149 467.298 130.135C466.475 130.165 465.666 129.911 465.009 129.414C464.351 128.918 463.885 128.209 463.689 127.409C463.574 126.748 463.669 126.068 463.961 125.464C464.253 124.86 464.728 124.363 465.319 124.044C465.715 123.818 466.148 123.663 466.598 123.587L540.553 111.68C541.47 111.491 542.424 111.662 543.218 112.158C544.013 112.654 544.585 113.437 544.816 114.345C544.891 114.79 544.875 115.246 544.769 115.685C544.663 116.124 544.469 116.537 544.198 116.899C543.928 117.26 543.587 117.563 543.196 117.789C542.804 118.015 542.371 118.159 541.923 118.212Z" fill="#49A078" stroke="#263238" stroke-miterlimit="10"/>
<path d="M561.93 124.394L497.979 135.418L490.853 136.636C490.645 136.651 490.437 136.651 490.229 136.636C489.431 136.632 488.659 136.355 488.041 135.851C487.423 135.347 486.997 134.646 486.833 133.865C486.703 133.139 486.817 132.391 487.159 131.737C487.501 131.084 488.051 130.563 488.722 130.256C489.024 130.105 489.347 129.997 489.681 129.937L560.682 117.756C561.584 117.58 562.519 117.769 563.283 118.279C564.047 118.789 564.579 119.581 564.763 120.481C564.838 120.925 564.825 121.379 564.723 121.817C564.621 122.255 564.433 122.669 564.169 123.033C563.905 123.397 563.571 123.706 563.187 123.939C562.803 124.173 562.375 124.328 561.93 124.394Z" fill="#49A078" stroke="#263238" stroke-miterlimit="10"/>
<path d="M577.005 132.342L511.805 144.25L504.481 145.589C504.273 145.612 504.064 145.612 503.857 145.589C503.002 145.585 502.177 145.276 501.529 144.718C500.882 144.16 500.454 143.389 500.324 142.544C500.148 141.634 500.328 140.691 500.827 139.909C501.325 139.127 502.104 138.566 503.004 138.342H503.217L575.741 125.095C576.209 125.014 576.688 125.026 577.151 125.131C577.615 125.236 578.052 125.431 578.44 125.705C578.828 125.98 579.157 126.328 579.41 126.73C579.663 127.132 579.834 127.58 579.913 128.049C580.096 129.004 579.892 129.992 579.347 130.797C578.802 131.602 577.959 132.158 577.005 132.342Z" fill="#49A078" stroke="#263238" stroke-miterlimit="10"/>
<path d="M591.028 140.306L523.179 152.487L516.754 153.629C516.536 153.652 516.316 153.652 516.099 153.629C515.226 153.618 514.386 153.297 513.728 152.724C513.07 152.151 512.636 151.363 512.505 150.5C512.373 149.638 512.552 148.756 513.009 148.013C513.467 147.27 514.173 146.713 515.003 146.442C515.151 146.391 515.304 146.355 515.459 146.336L589.734 133.012C590.22 132.903 590.722 132.894 591.211 132.984C591.701 133.075 592.166 133.264 592.581 133.539C592.995 133.815 593.35 134.171 593.622 134.587C593.895 135.003 594.081 135.47 594.168 135.96C594.256 136.45 594.243 136.952 594.131 137.437C594.019 137.922 593.81 138.379 593.517 138.781C593.223 139.183 592.852 139.521 592.424 139.775C591.996 140.029 591.521 140.194 591.028 140.26V140.306Z" fill="#49A078" stroke="#263238" stroke-miterlimit="10"/>
<path d="M606.955 149.883C606.482 150.284 605.908 150.547 605.296 150.645L533.731 163.496L531.067 163.968C530.849 163.983 530.63 163.983 530.412 163.968C529.564 163.961 528.744 163.662 528.091 163.121C527.438 162.58 526.992 161.83 526.827 160.998C526.663 160.167 526.79 159.303 527.188 158.554C527.586 157.806 528.23 157.217 529.011 156.888C529.25 156.785 529.5 156.713 529.757 156.674L604.032 143.351C604.736 143.223 605.462 143.308 606.118 143.595C606.703 143.842 607.214 144.237 607.601 144.741C607.988 145.245 608.237 145.841 608.324 146.47C608.412 147.099 608.334 147.74 608.1 148.331C607.865 148.921 607.481 149.44 606.986 149.838L606.955 149.883Z" fill="#49A078" stroke="#263238" stroke-miterlimit="10"/>
<path opacity="0.3" d="M605.295 150.614L533.731 163.465C533.747 163.612 533.747 163.76 533.731 163.907V272.015L525.965 282.917V170.302C525.962 168.431 525.544 166.583 524.741 164.893C523.938 163.202 522.77 161.711 521.321 160.527C509.978 151.299 480.986 128.962 470.785 133.317C461.223 137.398 418.802 276.705 398.002 346.716L389.354 348.239L388.059 344.98C408.311 272.167 449.3 131.368 465.364 124.074C465.76 123.848 466.193 123.694 466.643 123.618L540.598 111.711C541.515 111.521 542.47 111.692 543.264 112.188C544.058 112.685 544.63 113.468 544.861 114.375C544.93 114.823 544.906 115.28 544.792 115.718C544.678 116.156 544.476 116.567 544.198 116.924C543.921 117.282 543.573 117.579 543.176 117.798C542.78 118.017 542.343 118.153 541.892 118.197L483.133 127.668C484.945 128.444 486.803 129.312 488.691 130.272C488.994 130.12 489.317 130.012 489.65 129.952L560.651 117.771C561.553 117.596 562.488 117.784 563.252 118.294C564.016 118.805 564.548 119.596 564.732 120.496C564.81 120.941 564.798 121.397 564.698 121.837C564.597 122.276 564.409 122.692 564.145 123.058C563.881 123.424 563.546 123.734 563.161 123.968C562.775 124.203 562.346 124.358 561.9 124.425L497.949 135.449C499.608 136.438 501.268 137.443 502.913 138.494H503.126L575.649 125.247C576.117 125.166 576.597 125.178 577.06 125.283C577.523 125.388 577.961 125.583 578.349 125.858C578.736 126.132 579.066 126.48 579.319 126.883C579.571 127.285 579.742 127.733 579.822 128.201C579.996 129.151 579.788 130.132 579.243 130.93C578.699 131.728 577.862 132.28 576.913 132.464L511.713 144.371L514.911 146.594C515.059 146.543 515.212 146.507 515.368 146.488L589.643 133.165C590.128 133.056 590.631 133.046 591.12 133.137C591.609 133.227 592.075 133.416 592.489 133.691C592.904 133.967 593.258 134.323 593.531 134.739C593.804 135.155 593.99 135.622 594.077 136.112C594.164 136.602 594.152 137.105 594.04 137.589C593.928 138.074 593.719 138.531 593.425 138.933C593.132 139.335 592.76 139.673 592.332 139.927C591.905 140.182 591.43 140.347 590.937 140.412L523.088 152.594C525.326 154.269 527.275 155.791 528.889 157.055C529.128 156.952 529.378 156.881 529.635 156.842L603.91 143.519C604.614 143.39 605.34 143.475 605.996 143.762C606.331 145.909 606.605 147.995 606.864 150.005C606.4 150.337 605.861 150.546 605.295 150.614Z" fill="black"/>
<path d="M632.871 446.099C632.871 446.099 621.755 426.67 595.84 433.172C584.618 434.694 575.726 456.377 575.726 482.856C575.726 510.263 585.288 532.57 597.043 532.631L597.134 533.057C597.134 533.057 617.446 537.625 629.429 527.363C641.413 517.1 632.871 446.099 632.871 446.099Z" fill="#263238"/>
<path d="M623.019 529.495C633.674 529.495 642.311 509.418 642.311 484.653C642.311 459.887 633.674 439.811 623.019 439.811C612.364 439.811 603.727 459.887 603.727 484.653C603.727 509.418 612.364 529.495 623.019 529.495Z" fill="#263238"/>
<path opacity="0.3" d="M623.019 529.495C633.674 529.495 642.311 509.418 642.311 484.653C642.311 459.887 633.674 439.811 623.019 439.811C612.364 439.811 603.727 459.887 603.727 484.653C603.727 509.418 612.364 529.495 623.019 529.495Z" fill="black"/>
<path d="M627.343 481.759C627.343 495.92 622.517 507.386 616.563 507.386C615.818 507.384 615.084 507.213 614.416 506.883C609.513 504.477 605.813 494.154 605.813 481.759C605.813 469.365 609.513 459.057 614.416 456.651C615.083 456.317 615.817 456.14 616.563 456.133C622.517 456.133 627.343 467.614 627.343 481.759Z" fill="white" stroke="#263238" stroke-miterlimit="10"/>
<path d="M623.019 481.76C623.019 494.154 619.334 504.478 614.416 506.883C609.513 504.478 605.813 494.154 605.813 481.76C605.813 469.365 609.513 459.057 614.416 456.651C619.334 459.057 623.019 469.38 623.019 481.76Z" fill="white" stroke="#263238" stroke-miterlimit="10"/>
<path d="M638.55 413.545C638.55 422.879 639.54 430.796 632.277 434.649C625.014 438.501 612.117 444.561 606.392 473.491C601.26 499.376 607.062 508.056 598.352 510.416C591.576 512.273 540.111 524.759 517.819 530.21L507.572 532.692L452.011 495.479L450.655 494.565L444.489 490.423L450.655 461.645L451.371 458.295L480.636 417.321L530.884 366.678L555.246 351.817C555.246 351.817 612.939 352.532 616.015 355.958C619.091 359.384 619.898 361.242 621.39 375.144C622.882 389.045 621.116 394.557 630.526 397.283C638.672 399.613 638.718 403.16 638.596 410.134C638.581 411.17 638.55 412.312 638.55 413.545Z" fill="#49A078"/>
<path opacity="0.3" d="M605.813 353.888C605.813 353.888 605.326 354.253 605.311 354.299C601.062 357.694 580.705 367.607 568.371 385.087C556.038 402.567 543.857 424.95 544.115 438.181C546.322 439.652 547.89 441.905 548.501 444.485V453.438C525.356 474.39 508.912 492.692 508.912 492.692L452.011 495.433H450.655V459.255L451.371 458.25L480.636 417.276L530.884 366.632L555.246 351.771C555.246 351.771 588.44 352.198 605.813 353.888Z" fill="black"/>
<path d="M515.246 530.697L596.373 511.162C598.338 510.669 600.09 509.552 601.367 507.979C602.644 506.406 603.376 504.461 603.453 502.437C603.986 489.236 606.118 460.884 614.858 448.84C621.192 440.085 627.694 436.293 632.277 434.649C634.106 434.001 635.689 432.803 636.81 431.219C637.93 429.635 638.533 427.742 638.535 425.802V406.51C638.539 404.326 637.78 402.21 636.39 400.525C635 398.841 633.066 397.694 630.922 397.283H630.602C628.617 396.914 626.804 395.915 625.433 394.434C624.061 392.952 623.204 391.068 622.989 389.061L620.065 362.673C619.834 360.501 618.851 358.478 617.285 356.954C615.72 355.43 613.671 354.502 611.493 354.329C594.85 353.02 555.155 350.599 530.001 354.999" stroke="#263238" stroke-linecap="round" stroke-linejoin="round"/>
<path d="M594.043 417.275C601.399 412.087 609.023 407.289 616.883 402.902" stroke="#263238" stroke-linecap="round" stroke-linejoin="round"/>
<path d="M510.891 489.434C532.358 467.544 555.215 447.062 579.319 428.117" stroke="#263238" stroke-linecap="round" stroke-linejoin="round"/>
<path d="M516.418 470.462C516.418 470.462 494.066 428.939 454.112 457.108" stroke="#263238" stroke-linecap="round" stroke-linejoin="round"/>
<path d="M548.409 453.804C548.409 453.804 550.374 439.141 539.456 435.212C528.539 431.284 485.265 432.837 485.265 432.837" stroke="#263238" stroke-linecap="round" stroke-linejoin="round"/>
<path d="M544.115 438.181C544.115 438.181 546.049 392.502 598.337 359.582" stroke="#263238" stroke-linecap="round" stroke-linejoin="round"/>
<path d="M509.749 483.693C509.749 483.693 497.34 461.98 468.364 469.243C455.832 471.01 445.889 495.128 445.889 524.759C445.889 555.44 456.548 580.32 469.78 580.381L469.871 580.869C469.871 580.869 492.589 586.015 505.988 574.504C519.388 562.993 509.749 483.693 509.749 483.693Z" fill="#263238"/>
<path d="M498.741 576.895C510.648 576.895 520.301 554.459 520.301 526.784C520.301 499.109 510.648 476.674 498.741 476.674C486.833 476.674 477.18 499.109 477.18 526.784C477.18 554.459 486.833 576.895 498.741 576.895Z" fill="#222221"/>
<path opacity="0.3" d="M498.741 576.895C510.648 576.895 520.301 554.459 520.301 526.784C520.301 499.109 510.648 476.674 498.741 476.674C486.833 476.674 477.18 499.109 477.18 526.784C477.18 554.459 486.833 576.895 498.741 576.895Z" fill="black"/>
<path d="M503.583 523.541C503.583 539.361 498.177 552.182 491.523 552.182C490.687 552.177 489.864 551.979 489.117 551.603C483.636 548.923 479.51 537.382 479.51 523.541C479.51 509.7 483.636 498.158 489.117 495.479C489.864 495.103 490.687 494.905 491.523 494.9C498.253 494.9 503.583 507.736 503.583 523.541Z" fill="white" stroke="#263238" stroke-miterlimit="10"/>
<path d="M498.741 523.541C498.741 537.382 494.614 548.924 489.117 551.603C483.636 548.924 479.51 537.382 479.51 523.541C479.51 509.7 483.636 498.158 489.117 495.479C494.614 498.158 498.741 509.7 498.741 523.541Z" fill="white" stroke="#263238" stroke-miterlimit="10"/>
<path opacity="0.1" d="M632.246 434.649C624.968 438.516 612.086 444.561 606.361 473.492C601.23 499.377 607.031 508.056 598.322 510.416C591.546 512.273 540.08 524.759 517.789 530.21L516.403 518.76L589.14 502.955C589.14 502.955 586.536 418.844 638.581 410.073C638.581 411.154 638.581 412.296 638.581 413.53C638.55 422.879 639.54 430.781 632.246 434.649Z" fill="black"/>
<path opacity="0.1" d="M544.115 435.167C544.115 435.167 553.739 441.79 558.809 436.689C563.879 431.588 598.398 408.003 614.401 404.211C614.401 404.211 562.007 440.755 545.105 456.514C545.105 456.514 553.815 451.87 545.105 439.765L544.115 435.167Z" fill="black"/>
<path d="M442.631 290.972C442.631 290.972 446.072 329.145 463.948 338.707C473.294 339.353 482.612 337.109 490.64 332.281C496.837 328.414 509.293 291.916 510.435 288.383L483.408 284.348L478.231 320.785C478.231 320.785 466.4 309.259 459.532 297.687C460.416 293.393 456.35 290.85 455.223 287.135C450.016 270.279 442.631 290.972 442.631 290.972Z" fill="white" stroke="#263238" stroke-linecap="round" stroke-linejoin="round"/>
<path d="M542.41 234.268C542.41 234.268 550.023 234.268 553.19 241.059C553.19 241.059 581.953 252.875 587.511 261.128C593.069 269.381 590.556 302.102 583.659 316.202C579.36 324.771 572.202 331.568 563.423 335.418L560.682 347.827L500.888 347.203L495.041 309.67L495.269 292.083L483.179 285.323C483.179 285.323 486.757 257.763 491.904 255.174C497.05 252.586 519.57 243.343 519.57 243.343C519.57 243.343 521.093 238.775 524.138 237.481C527.184 236.187 542.41 234.268 542.41 234.268Z" fill="#49A078"/>
<path d="M585.531 310.02C585.531 310.02 578.192 336.377 573.35 341.524C573.35 341.524 560.332 342.559 550.511 340.153C540.69 337.748 500.263 321.349 495.406 316.324C490.549 311.299 499.7 305.148 499.7 305.148C506.113 307.422 512.651 309.328 519.281 310.858C530.823 313.568 550.983 315.426 556.647 318.791L561.306 304.386C565.51 303.492 569.86 303.533 574.046 304.506C578.232 305.48 582.154 307.362 585.531 310.02Z" fill="white"/>
<path d="M510.434 191.817C510.434 191.817 509.399 199.918 512.536 215.266C515.672 230.614 518.215 234.619 522.6 234.162C526.986 233.705 526.986 236.187 526.986 236.187V245.78C526.986 245.78 531.356 263.001 534.02 263.975C536.685 264.95 544.496 250.82 546.399 246.815C548.303 242.811 548.318 225.011 548.318 225.011L549.216 210.987C550.896 210.672 552.384 209.707 553.356 208.302C554.328 206.896 554.706 205.164 554.408 203.481C553.449 197.177 546.201 188.818 546.201 188.818C546.201 188.818 523.423 183.382 510.434 191.817Z" fill="white"/>
<path d="M450.64 338.707C450.64 338.707 484.138 340.717 487.564 344.508C490.99 348.3 490.214 357.39 490.214 357.39L497.127 362.308L485.265 447.302C485.265 447.302 463.232 441.592 450.64 464.417V338.707Z" fill="#263238"/>
<path d="M518.84 202.156C519.189 203.916 519.122 205.733 518.643 207.462C518.165 209.191 517.288 210.784 516.084 212.114C515.917 212.267 515.778 212.447 515.672 212.647C515.563 212.974 515.561 213.326 515.665 213.655C515.769 213.983 515.974 214.27 516.251 214.474C516.606 214.79 517.026 215.023 517.483 215.156C517.939 215.288 518.419 215.316 518.888 215.239C519.357 215.162 519.802 214.98 520.192 214.708C520.581 214.436 520.905 214.081 521.139 213.667" stroke="#263238" stroke-linecap="round" stroke-linejoin="round"/>
<path d="M518.352 198.045C517.966 197.736 517.523 197.506 517.048 197.37C516.572 197.233 516.075 197.192 515.584 197.249C515.092 197.305 514.617 197.459 514.186 197.7C513.754 197.941 513.374 198.265 513.069 198.654" stroke="#263238" stroke-linecap="round" stroke-linejoin="round"/>
<path d="M525.098 197.222C526.224 196.693 527.51 196.609 528.696 196.987C529.882 197.366 530.881 198.178 531.493 199.263" stroke="#263238" stroke-linecap="round" stroke-linejoin="round"/>
<path d="M516.952 203.8C516.952 205.125 516.373 206.191 515.657 206.191C514.942 206.191 514.363 205.125 514.363 203.8C514.363 202.476 514.942 201.395 515.657 201.395C516.373 201.395 516.952 202.476 516.952 203.8Z" fill="#263238"/>
<path d="M526.696 206.206C527.411 206.206 527.99 205.129 527.99 203.8C527.99 202.472 527.411 201.395 526.696 201.395C525.981 201.395 525.402 202.472 525.402 203.8C525.402 205.129 525.981 206.206 526.696 206.206Z" fill="#263238"/>
<path d="M519.997 219.819C519.997 219.819 527.686 221.189 529.742 216.926" stroke="#263238" stroke-linecap="round" stroke-linejoin="round"/>
<path d="M514.363 182.59C514.363 182.59 508.349 192.091 511.318 208.673C514.287 225.254 517.484 233.035 522.661 234.116C527.838 235.197 542.456 226.853 545.836 223.275C549.216 219.697 549.277 210.942 549.277 210.942" stroke="#263238" stroke-linecap="round" stroke-linejoin="round"/>
<path d="M544.953 203.481C544.953 203.481 546.004 197.634 548.851 196.659C551.698 195.685 554.454 200.435 554.454 203.481C554.454 206.526 551.805 211.703 548.196 210.987" stroke="#263238" stroke-linecap="round" stroke-linejoin="round"/>
<path d="M548.029 197.101C545.547 198.556 542.714 199.303 539.837 199.263C535.969 198.852 530.594 192.03 523.088 192.639C515.581 193.248 509.232 198.349 506.78 196.309C504.329 194.268 508.013 188.772 508.013 188.772L509.734 186.594C509.734 186.594 509.277 181.935 509.277 178.052C509.277 174.17 515.505 168.186 528.341 167.394C541.177 166.602 546.887 171.566 548.957 173.85C549.445 174.398 553.525 178.996 554.5 183.321C555.566 188.224 553.693 195.319 553.236 199.324C551.257 195.289 548.029 197.101 548.029 197.101Z" fill="#263238"/>
<path d="M514.363 186.808C514.363 186.808 524.945 180.504 537.203 189.426" stroke="white" stroke-linecap="round" stroke-linejoin="round"/>
<path d="M527.031 233.72V245.78C527.031 245.78 530.945 262.803 534.066 263.975C537.187 265.148 544.633 251.261 546.247 247.546C547.085 245.551 547.465 240.892 547.648 236.979L549.308 210.987" stroke="#263238" stroke-linecap="round" stroke-linejoin="round"/>
<path d="M526.696 236.979C526.696 236.979 521.352 237.177 520.758 240.694C520.164 244.211 520.575 259.468 519.403 261.813C518.231 264.158 516.266 265.726 517.043 266.518C517.819 267.31 528.493 258.372 531.28 259.803" stroke="#263238" stroke-linecap="round" stroke-linejoin="round"/>
<path d="M539.258 259.742C542.4 261.004 545.281 262.837 547.755 265.148C551.287 268.665 554.028 264.889 553.038 264.036C552.048 263.184 550.693 260.839 552.262 254.581C553.83 248.323 553.48 236.994 547.694 234.786" stroke="#263238" stroke-linecap="round" stroke-linejoin="round"/>
<path d="M483.027 285.977C485.265 273.674 488.508 257.367 491.873 255.174C496.731 252.022 520.591 243.282 520.591 243.282" stroke="#263238" stroke-linecap="round" stroke-linejoin="round"/>
<path d="M492.665 293.743L499.974 344.371L560.606 347.828L562.738 341.95" stroke="#263238" stroke-linecap="round" stroke-linejoin="round"/>
<path d="M498.39 308.467L480.256 300.29" stroke="#222221" stroke-linecap="round" stroke-linejoin="round"/>
<path d="M490.64 314.192C486.701 303.231 479.193 293.912 469.323 287.728C459.593 281.866 449.041 280.587 439.586 284.135C430.13 287.683 423.004 295.57 419.532 306.381C418.68 309.066 418.073 311.823 417.72 314.618L425.014 315.593C425.294 313.229 425.804 310.899 426.537 308.634C429.308 300.016 434.835 293.758 442.144 291.017C444.797 290.018 447.607 289.502 450.442 289.495C455.778 289.585 460.987 291.139 465.501 293.987C469.592 296.494 473.201 299.711 476.16 303.488C479.333 307.475 481.851 311.941 483.621 316.72C487.289 326.004 487.734 336.25 484.884 345.817C482.113 354.436 476.586 360.694 469.277 363.434C463.145 365.623 456.406 365.367 450.457 362.719V370.576C453.846 371.702 457.393 372.283 460.964 372.296C464.682 372.294 468.37 371.624 471.851 370.317C481.306 366.769 488.432 358.867 491.904 348.056C493.384 343.356 494.134 338.457 494.127 333.53C494.125 326.928 492.944 320.379 490.64 314.192Z" fill="#263238"/>
<path d="M450.275 285.871C450.275 285.871 446.453 312.335 455.817 320.587C465.181 328.84 486.727 316.964 486.727 316.964L490.077 326.754C490.077 326.754 462.319 331.413 465.714 359.263L449.94 361.318V318.76L436.997 317.101C436.997 317.101 437.804 303.96 428.638 296.728C434.942 291.528 442.338 287.818 450.275 285.871Z" fill="#263238"/>
<path d="M496.137 317.77C511.363 323.115 526.955 333.545 540.766 337.763C556.891 342.681 572.376 342.209 573.305 341.524C577.779 332.727 581.478 323.556 584.359 314.116C590.45 293.362 593.86 268.254 587.557 261.082C579.319 251.718 553.236 241.014 553.236 241.014" stroke="#263238" stroke-linecap="round" stroke-linejoin="round"/>
<path d="M527.031 236.187C527.031 236.187 527.397 244.135 531.28 243.283C535.162 242.43 545.958 234.512 548.683 220.032C546.196 223.396 542.972 226.146 539.258 228.071C532.848 231.482 528.295 233.324 528.295 233.324L527.031 236.187Z" fill="#263238"/>
<path d="M497.385 300.169C496.639 297.215 495.299 293.895 492.528 293.21C491.904 293.068 491.263 293.017 490.625 293.058C485.219 293.18 479.51 295.098 476.388 299.514C475.904 300.115 475.607 300.846 475.535 301.615C475.515 302.002 475.628 302.383 475.855 302.696C476.083 303.01 476.41 303.235 476.784 303.336C477.324 303.361 477.858 303.212 478.307 302.91C480.384 301.632 482.608 300.609 484.93 299.864C486.257 299.438 487.684 299.438 489.011 299.864C489.27 300.199 489.696 301.189 489.955 301.524C485.6 301.798 478.246 304.447 476.54 308.848C476.375 309.188 476.327 309.574 476.403 309.944C476.693 310.964 478.154 310.919 479.19 310.66C482.881 309.741 486.638 309.11 490.427 308.772C489.026 308.97 487.656 309.563 486.27 309.777C483.773 310.127 480.956 310.705 479.677 312.822C479.549 313.003 479.463 313.21 479.423 313.429C479.384 313.647 479.392 313.871 479.449 314.086C479.647 314.619 480.301 314.832 480.88 314.908C482.792 314.966 484.704 314.833 486.59 314.512C487.537 314.359 488.507 314.436 489.418 314.735C490.33 315.034 491.156 315.548 491.828 316.233C491.934 317.908 491.904 319.156 492.01 320.801C493.295 320.234 494.441 319.396 495.371 318.345C496.302 317.293 496.994 316.054 497.401 314.71C498.533 310.811 498.721 306.698 497.949 302.712C497.797 301.996 497.614 301.098 497.385 300.169Z" fill="white" stroke="#263238" stroke-linecap="round" stroke-linejoin="round"/>
<path d="M556.662 318.79C556.662 318.79 563.149 304.386 562.753 291.505" stroke="#263238" stroke-linecap="round" stroke-linejoin="round"/>
<path d="M561.58 347.401C561.58 347.401 571.234 375.098 559.692 394.603C555.322 402.003 505.897 402.902 505.897 402.902L485.265 447.302L461.984 365.582L499.974 344.371L561.58 347.401Z" fill="#263238"/>
<path d="M504.115 400.465L551.196 402.902" stroke="#263238" stroke-linecap="round" stroke-linejoin="round"/>
<path d="M498.908 304.402C508.973 308.833 531.721 314.177 537.994 314.756C548.242 315.7 560.438 317.116 565.767 327.272" stroke="#263238" stroke-linecap="round" stroke-linejoin="round"/>
<path d="M561.321 304.402C561.321 304.402 572.208 301.493 585.531 310.035" stroke="#263238" stroke-linecap="round" stroke-linejoin="round"/>
<g opacity="0.2">
<path opacity="0.2" d="M520.545 354.025C512.231 356.552 500.02 360.526 487.321 365.582" stroke="white" stroke-linecap="round" stroke-linejoin="round"/>
<path opacity="0.2" d="M511.302 355.928L509.308 350.934" stroke="white" stroke-linecap="round" stroke-linejoin="round"/>
</g>
<path d="M496.137 296.621L494.264 278.76" stroke="#263238" stroke-linecap="round" stroke-linejoin="round"/>
<path d="M433.45 285.216C431.47 287.363 429.582 289.982 429.826 292.829C429.828 293.129 429.903 293.424 430.044 293.689C430.184 293.954 430.386 294.181 430.633 294.352C430.998 294.458 431.386 294.454 431.749 294.34C432.112 294.226 432.433 294.008 432.673 293.713C433.636 292.797 434.327 291.632 434.668 290.348C435.018 289.175 436.327 282.11 433.45 285.216Z" fill="white" stroke="#263238" stroke-linecap="round" stroke-linejoin="round"/>
<path d="M440.225 287.652C439.158 289.372 437.912 290.974 436.51 292.434C436.454 292.488 436.386 292.53 436.312 292.555C436.234 292.545 436.16 292.514 436.099 292.464C435.687 292.123 435.348 291.701 435.105 291.225C434.861 290.748 434.718 290.227 434.683 289.693C434.629 288.626 434.768 287.558 435.094 286.541C435.582 284.353 436.788 282.392 438.52 280.968C438.833 280.719 439.206 280.557 439.601 280.496C440.029 280.474 440.456 280.568 440.834 280.77C441.464 281.034 442.066 281.361 442.631 281.745C442.001 283.78 441.196 285.756 440.225 287.652Z" fill="white" stroke="#263238" stroke-linecap="round" stroke-linejoin="round"/>
<path d="M445.524 277.649C441.976 279.506 440.012 284.836 439.586 288.551C439.433 289.8 439.586 291.185 441.108 291.49C441.833 291.564 442.563 291.423 443.207 291.085C443.852 290.746 444.382 290.225 444.732 289.586C445.396 288.3 445.907 286.941 446.255 285.536C446.649 284.132 447.515 282.906 448.706 282.064C449.803 281.334 451.752 281.501 452.071 279.918C452.711 276.811 447.199 276.781 445.524 277.649Z" fill="white" stroke="#263238" stroke-linecap="round" stroke-linejoin="round"/>
<path d="M495.665 292.083L483.103 285.323" stroke="#263238" stroke-linecap="round" stroke-linejoin="round"/>
<path d="M445.554 65.3765V317.618L416.609 317.786L406.072 319.917V125.871L406.026 125.886H406.011L342.974 136.682L342.273 136.804L343.324 306.975L312.688 303.793V91.6574L320.606 88.9318L342.273 93.3171L342.41 93.2866L405.28 78.5322L405.357 78.5017L406.011 64.6151V64.5847L406.072 63.397L416.609 60.0929L445.554 65.3765Z" fill="#49A078"/>
<path opacity="0.3" d="M406.011 125.886L343.994 136.515L342.974 136.682L342.41 93.2865L405.281 78.5321L405.92 120.253L406.011 125.886Z" fill="black"/>
<path opacity="0.2" d="M406.011 125.886L342.974 136.682L343.065 131.718L405.92 120.253L406.011 125.886Z" fill="black"/>
<path opacity="0.2" d="M320.606 88.9318V304.63L312.688 303.793V91.6573L320.606 88.9318Z" fill="black"/>
<path opacity="0.2" d="M416.609 60.0929V317.786L406.072 319.917L406.027 125.886L406.011 64.6151V64.5847L406.072 63.397L416.609 60.0929Z" fill="black"/>
<path d="M445.555 319.019V65.3765L416.624 60.0929L406.072 63.397V321.531" stroke="#263238" stroke-linecap="round" stroke-linejoin="round"/>
<path d="M416.624 60.0929V319.917" stroke="#263238" stroke-linecap="round" stroke-linejoin="round"/>
<path d="M343.324 309.487L342.258 93.3018L320.591 88.9318L312.688 91.6725V307.736" stroke="#263238" stroke-linecap="round" stroke-linejoin="round"/>
<path d="M320.591 88.9318V312.487" stroke="#263238" stroke-linecap="round" stroke-linejoin="round"/>
<path d="M342.258 93.3018L406.072 78.6083" stroke="#263238" stroke-linecap="round" stroke-linejoin="round"/>
<path d="M342.41 131.84L406.072 119.902" stroke="#263238" stroke-linecap="round" stroke-linejoin="round"/>
<path d="M342.974 136.682L406.072 125.871" stroke="#263238" stroke-linecap="round" stroke-linejoin="round"/>
<path d="M611.508 354.329V181.615C611.508 175.525 611.691 169.358 611.812 163.252C611.904 158.395 612.604 152.929 610 148.635C605.326 140.869 597.027 135.738 589.582 130.911C575.741 121.958 560.377 114.284 544.115 111.117C523.834 107.112 450.001 320.953 450.001 320.953L450.64 338.737C450.64 338.737 528.737 116.431 548.683 119.933C560.344 122.176 571.435 126.737 581.299 133.347C586.795 136.88 593.008 139.803 597.682 144.432C604.656 151.33 603.773 160.146 603.773 169.19V210.165C603.773 234.598 603.773 259.037 603.773 283.48V341.904C603.773 342.513 603.56 353.385 603.773 353.416L611.508 354.329Z" fill="#49A078" stroke="#263238" stroke-miterlimit="10"/>
<path d="M448.478 524.165V576.392L432.308 580.792L379.243 570.423L370.351 572.951V597.663L344.238 604.317L289.712 593.202L282.296 595.151V621.66L247.504 631.131L198.52 621.28V595.821L192.932 595.638L136.807 609.768L109.339 603.586V580.336L97.0206 579.041L48.8136 592.167L30.9681 587.568V538.737L247.504 531.185L260.599 530.728L448.478 524.165Z" fill="#49A078"/>
<path opacity="0.1" d="M448.478 524.165V576.392L432.307 580.792L379.243 570.423L370.351 572.951V597.663L344.238 604.317L289.712 593.202L282.296 595.151V621.66L247.504 631.131V531.185L260.599 530.728L448.478 524.165Z" fill="black"/>
<path opacity="0.3" d="M247.504 529.647V631.131L198.52 621.28V595.821L192.932 595.638L136.807 609.769L109.339 603.587V580.336L97.0206 579.042L48.8136 592.167L30.9681 587.568V511.771L247.504 529.647Z" fill="black"/>
<path opacity="0.3" d="M141.345 585.893V609.784L192.932 595.638L141.345 585.893Z" fill="black"/>
<path opacity="0.3" d="M344.238 578.844V604.318L289.712 593.202L344.238 578.844Z" fill="black"/>
<path opacity="0.3" d="M432.307 580.792V555.318L380.187 570.012L432.307 580.792Z" fill="black"/>
<path opacity="0.3" d="M52.1633 570.408L100.705 579.057L52.1633 592.091V570.408Z" fill="black"/>
<path d="M450.64 318.821V531.504L247.504 575.813L21.8779 547.172V318.821L247.504 297.687L450.64 318.821Z" fill="white"/>
<path opacity="0.1" d="M224.877 324.242L248.585 322.536L270.13 324.242V336.164L248.585 334.367L224.877 336.651V324.242Z" fill="black"/>
<path d="M21.8779 318.821V547.172L247.504 575.798L450.64 531.489V318.821L247.504 297.687L21.8779 318.821Z" stroke="#263238" stroke-linecap="round" stroke-linejoin="round"/>
<path d="M247.504 631.131V575.798V297.687" stroke="#263238" stroke-linecap="round" stroke-linejoin="round"/>
<path d="M194.455 595.121L141.345 609.784L109.339 603.586V580.336L52.1634 570.408V592.09L30.9681 587.583V548.33" stroke="#263238" stroke-linecap="round" stroke-linejoin="round"/>
<path d="M52.5288 592.167L100.705 579.057" stroke="#263238" stroke-linecap="round" stroke-linejoin="round"/>
<path d="M344.238 604.333V578.844L282.281 595.166V621.66L247.504 631.131L198.505 621.28V595.821L141.345 585.893V609.784" stroke="#263238" stroke-linecap="round" stroke-linejoin="round"/>
<path opacity="0.1" d="M247.504 297.687V575.813L21.8779 547.172V318.821L247.504 297.687Z" fill="black"/>
<path d="M289.712 593.202L344.238 604.181L370.351 597.664V572.951L432.307 555.319V580.808L435.124 580.031L448.478 576.392V531.961" stroke="#263238" stroke-linecap="round" stroke-linejoin="round"/>
<path d="M431.851 581.006L379.243 570.423" stroke="#263238" stroke-linecap="round" stroke-linejoin="round"/>
<path d="M21.8779 390.675L247.504 382.589L450.64 390.675" stroke="#263238" stroke-linecap="round" stroke-linejoin="round"/>
<path d="M21.8779 470.279L247.504 483.328L450.64 464.401" stroke="#263238" stroke-linecap="round" stroke-linejoin="round"/>
<path d="M365.083 309.929V386.625" stroke="#263238" stroke-linecap="round" stroke-linejoin="round"/>
<path d="M338.786 386.625V474.831" stroke="#263238" stroke-linecap="round" stroke-linejoin="round"/>
<path d="M405.554 388.878V467.903" stroke="#263238" stroke-linecap="round" stroke-linejoin="round"/>
<path d="M361.87 472.685V550.857" stroke="#263238" stroke-linecap="round" stroke-linejoin="round"/>
<path d="M159.358 305.939V478.014" stroke="#263238" stroke-linecap="round" stroke-linejoin="round"/>
<path d="M57.5231 315.486V388.878" stroke="#263238" stroke-linecap="round" stroke-linejoin="round"/>
<path d="M83.5908 388.467V473.872" stroke="#263238" stroke-linecap="round" stroke-linejoin="round"/>
<path d="M115.353 559.034V475.532" stroke="#263238" stroke-linecap="round" stroke-linejoin="round"/>
<path opacity="0.1" d="M22.0759 423.731H41.1546V435.014L22.0759 434.816V423.731Z" fill="black"/>
<path opacity="0.1" d="M322.479 421.752V434.436L355.338 432.761V422.285L322.479 421.752Z" fill="black"/>
<path opacity="0.1" d="M97.2794 509.624V522.566L134.691 526.327V511.771L97.2794 509.624Z" fill="black"/>
<path d="M249.635 137.702C240.226 132.586 235.84 136.849 232.399 132.586C228.958 128.323 241.885 117.07 216.031 105.879C216.031 105.879 214.371 81.7449 178.969 80.877C143.568 80.009 153.084 104.965 143.644 110.995C134.204 117.025 131.585 107.554 122.144 113.583C112.704 119.613 116.967 131.688 109.202 133.378C101.436 135.068 91.1127 125.612 81.6266 131.718C72.1405 137.824 72.1557 142.925 67.9227 142.925C63.6898 142.925 54.9955 139.484 49.8337 142.925C44.6719 146.366 38.627 150.675 38.627 150.675H256.518C256.518 150.675 259.198 142.879 249.635 137.702Z" stroke="#263238" stroke-linecap="round" stroke-linejoin="round"/>
<path d="M120.637 134.246C119.398 134.946 118.111 135.557 116.785 136.073" stroke="#263238" stroke-linecap="round" stroke-linejoin="round"/>
<path d="M167.291 93.926C165.15 94.8855 163.271 96.3446 161.811 98.1807C160.351 100.017 159.353 102.176 158.901 104.478C157.241 112.365 153.633 117.603 149.43 118.182C145.228 118.76 129.407 117.101 126.819 122.872C126.108 124.573 125.597 126.351 125.296 128.17" stroke="#263238" stroke-linecap="round" stroke-linejoin="round"/>
<path d="M260.187 209.815C256.472 207.805 254.782 209.48 253.442 207.805C252.102 206.13 257.142 201.714 247.047 197.359C247.047 197.359 246.362 187.934 232.567 187.599C218.771 187.264 222.471 197.024 218.756 199.385C215.041 201.745 214.051 198.045 210.336 200.389C206.621 202.734 208.326 207.47 205.296 208.14C202.266 208.81 198.231 205.094 194.531 207.47C190.831 209.845 190.831 211.84 189.141 211.84C187.451 211.84 184.085 210.5 182.076 211.84C180.066 213.18 177.69 214.885 177.69 214.885H262.867C262.867 214.885 263.872 211.84 260.187 209.815Z" stroke="#263238" stroke-linecap="round" stroke-linejoin="round"/>
<path d="M209.818 208.475C209.325 208.742 208.816 208.981 208.296 209.19" stroke="#263238" stroke-linecap="round" stroke-linejoin="round"/>
<path d="M228.014 192.715C227.175 193.085 226.436 193.65 225.859 194.362C225.282 195.075 224.883 195.914 224.694 196.811C224.085 199.857 222.654 201.958 221.01 202.156C219.365 202.354 213.198 201.76 212.178 204.014C211.901 204.677 211.706 205.373 211.6 206.084" stroke="#263238" stroke-linecap="round" stroke-linejoin="round"/>
</svg>
