<svg width="1331" height="992" viewBox="0 0 1331 992" fill="none" xmlns="http://www.w3.org/2000/svg">
<path d="M1330.56 871.251H0V871.917H1330.56V871.251Z" fill="#EBEBEB"/>
<path d="M460.96 888.229H399.275V888.895H460.96V888.229Z" fill="#EBEBEB"/>
<path d="M1220.84 902.493H1070.04V903.158H1220.84V902.493Z" fill="#EBEBEB"/>
<path d="M264.489 902.493H113.683V903.158H264.489V902.493Z" fill="#EBEBEB"/>
<path d="M630.686 752.565H116.85C112.824 752.558 108.966 750.954 106.123 748.105C103.279 745.257 101.681 741.396 101.681 737.37V15.0619C101.716 11.0597 103.329 7.23287 106.169 4.41272C109.009 1.59257 112.847 0.00685608 116.85 0H630.686C634.716 0 638.581 1.6009 641.43 4.45051C644.28 7.30013 645.881 11.165 645.881 15.195V737.37C645.881 741.4 644.28 745.265 641.43 748.115C638.581 750.964 634.716 752.565 630.686 752.565ZM116.85 0.532226C113.001 0.539276 109.312 2.07319 106.593 4.79728C103.874 7.52136 102.347 11.213 102.347 15.0619V737.37C102.347 741.219 103.874 744.911 106.593 747.635C109.312 750.359 113.001 751.893 116.85 751.9H630.686C634.535 751.886 638.223 750.351 640.944 747.629C643.666 744.907 645.202 741.219 645.216 737.37V15.0619C645.202 11.2127 643.666 7.52519 640.944 4.80338C638.223 2.08156 634.535 0.546249 630.686 0.532226H116.85Z" fill="#EBEBEB"/>
<path d="M1206.31 752.565H692.45C688.425 752.551 684.568 750.946 681.721 748.099C678.875 745.253 677.269 741.396 677.255 737.37V15.0619C677.297 11.0573 678.916 7.23047 681.76 4.41106C684.605 1.59164 688.445 0.00678131 692.45 0H1206.31C1210.31 0.0138498 1214.14 1.60266 1216.98 4.42206C1219.81 7.24146 1221.42 11.0643 1221.45 15.0619V737.37C1221.46 739.362 1221.07 741.335 1220.31 743.177C1219.55 745.019 1218.44 746.693 1217.03 748.104C1215.62 749.515 1213.95 750.635 1212.12 751.4C1210.28 752.166 1208.3 752.562 1206.31 752.565ZM692.45 0.532226C688.601 0.546249 684.914 2.08156 682.192 4.80338C679.47 7.52519 677.935 11.2127 677.921 15.0619V737.37C677.935 741.219 679.47 744.907 682.192 747.629C684.914 750.351 688.601 751.886 692.45 751.9H1206.31C1210.16 751.886 1213.85 750.351 1216.57 747.629C1219.29 744.907 1220.83 741.219 1220.84 737.37V15.0619C1220.83 11.2127 1219.29 7.52519 1216.57 4.80338C1213.85 2.08156 1210.16 0.546249 1206.31 0.532226H692.45Z" fill="#EBEBEB"/>
<path d="M262.653 200.675H484.324C486.555 200.672 488.764 201.108 490.826 201.96C492.887 202.812 494.76 204.063 496.337 205.64C497.915 207.217 499.165 209.09 500.017 211.152C500.869 213.213 501.306 215.423 501.302 217.653V870.639H245.834V217.627C245.841 213.156 247.611 208.868 250.76 205.695C253.909 202.521 258.182 200.717 262.653 200.675Z" fill="#F5F5F5"/>
<path d="M299.855 240.246H266.911V313.587H299.855V240.246Z" fill="#EBEBEB"/>
<path d="M480.013 240.246H447.068V313.587H480.013V240.246Z" fill="#EBEBEB"/>
<path d="M359.89 240.246H326.945V313.587H359.89V240.246Z" fill="#EBEBEB"/>
<path d="M419.952 240.246H387.007V313.587H419.952V240.246Z" fill="#EBEBEB"/>
<path d="M299.855 356.031H266.911V429.372H299.855V356.031Z" fill="#EBEBEB"/>
<path d="M480.013 356.031H447.068V429.372H480.013V356.031Z" fill="#EBEBEB"/>
<path d="M359.89 356.031H326.945V429.372H359.89V356.031Z" fill="#EBEBEB"/>
<path d="M419.952 356.031H387.007V429.372H419.952V356.031Z" fill="#EBEBEB"/>
<path d="M299.855 471.79H266.911V545.131H299.855V471.79Z" fill="#EBEBEB"/>
<path d="M480.013 471.79H447.068V545.131H480.013V471.79Z" fill="#EBEBEB"/>
<path d="M359.89 471.79H326.945V545.131H359.89V471.79Z" fill="#EBEBEB"/>
<path d="M419.952 471.79H387.007V545.131H419.952V471.79Z" fill="#EBEBEB"/>
<path d="M299.855 587.576H266.911V660.916H299.855V587.576Z" fill="#EBEBEB"/>
<path d="M480.013 587.576H447.068V660.916H480.013V587.576Z" fill="#EBEBEB"/>
<path d="M359.89 587.576H326.945V660.916H359.89V587.576Z" fill="#EBEBEB"/>
<path d="M419.952 587.576H387.007V660.916H419.952V587.576Z" fill="#EBEBEB"/>
<path d="M299.855 703.334H266.911V776.675H299.855V703.334Z" fill="#EBEBEB"/>
<path d="M480.013 703.334H447.068V776.675H480.013V703.334Z" fill="#EBEBEB"/>
<path d="M359.89 703.334H326.945V776.675H359.89V703.334Z" fill="#EBEBEB"/>
<path d="M419.952 703.334H387.007V776.675H419.952V703.334Z" fill="#EBEBEB"/>
<path d="M1048.32 261.535H1207.03C1210.69 261.542 1214.2 262.999 1216.79 265.588C1219.38 268.177 1220.84 271.685 1220.84 275.346V870.639H1034.56V275.373C1034.56 271.717 1036.01 268.209 1038.59 265.616C1041.17 263.023 1044.67 261.556 1048.32 261.535Z" fill="#F5F5F5"/>
<path d="M1088.19 297.54H1058.25V364.201H1088.19V297.54Z" fill="#EBEBEB"/>
<path d="M1142.79 297.54H1112.85V364.201H1142.79V297.54Z" fill="#EBEBEB"/>
<path d="M1197.37 297.54H1167.43V364.201H1197.37V297.54Z" fill="#EBEBEB"/>
<path d="M1088.19 402.787H1058.25V469.448H1088.19V402.787Z" fill="#EBEBEB"/>
<path d="M1142.79 402.787H1112.85V469.448H1142.79V402.787Z" fill="#EBEBEB"/>
<path d="M1197.37 402.787H1167.43V469.448H1197.37V402.787Z" fill="#EBEBEB"/>
<path d="M1088.19 508.061H1058.25V574.723H1088.19V508.061Z" fill="#EBEBEB"/>
<path d="M1142.79 508.061H1112.85V574.723H1142.79V508.061Z" fill="#EBEBEB"/>
<path d="M1197.37 508.061H1167.43V574.723H1197.37V508.061Z" fill="#EBEBEB"/>
<path d="M1088.19 613.282H1058.25V679.943H1088.19V613.282Z" fill="#EBEBEB"/>
<path d="M1142.79 613.282H1112.85V679.943H1142.79V613.282Z" fill="#EBEBEB"/>
<path d="M1197.37 613.282H1167.43V679.943H1197.37V613.282Z" fill="#EBEBEB"/>
<path d="M1088.19 718.556H1058.25V785.217H1088.19V718.556Z" fill="#EBEBEB"/>
<path d="M1142.79 718.556H1112.85V785.217H1142.79V718.556Z" fill="#EBEBEB"/>
<path d="M1197.37 718.556H1167.43V785.217H1197.37V718.556Z" fill="#EBEBEB"/>
<path d="M684.733 91.17H942.543C947.779 91.17 952.802 93.2504 956.505 96.9534C960.208 100.656 962.288 105.679 962.288 110.916V870.639H665.014V110.916C665.014 105.683 667.091 100.665 670.788 96.9628C674.485 93.2605 679.501 91.1771 684.733 91.17Z" fill="#F5F5F5"/>
<path d="M728.003 137.234H689.683V222.55H728.003V137.234Z" fill="#EBEBEB"/>
<path d="M937.593 137.234H899.273V222.55H937.593V137.234Z" fill="#EBEBEB"/>
<path d="M797.858 137.234H759.538V222.55H797.858V137.234Z" fill="#EBEBEB"/>
<path d="M867.739 137.234H829.418V222.55H867.739V137.234Z" fill="#EBEBEB"/>
<path d="M728.003 271.94H689.683V357.256H728.003V271.94Z" fill="#EBEBEB"/>
<path d="M937.593 271.94H899.273V357.256H937.593V271.94Z" fill="#EBEBEB"/>
<path d="M797.858 271.94H759.538V357.256H797.858V271.94Z" fill="#EBEBEB"/>
<path d="M867.739 271.94H829.418V357.256H867.739V271.94Z" fill="#EBEBEB"/>
<path d="M728.003 406.646H689.683V491.962H728.003V406.646Z" fill="#EBEBEB"/>
<path d="M937.593 406.646H899.273V491.962H937.593V406.646Z" fill="#EBEBEB"/>
<path d="M797.858 406.646H759.538V491.962H797.858V406.646Z" fill="#EBEBEB"/>
<path d="M867.739 406.646H829.418V491.962H867.739V406.646Z" fill="#EBEBEB"/>
<path d="M728.003 541.325H689.683V626.641H728.003V541.325Z" fill="#EBEBEB"/>
<path d="M937.593 541.325H899.273V626.641H937.593V541.325Z" fill="#EBEBEB"/>
<path d="M797.858 541.325H759.538V626.641H797.858V541.325Z" fill="#EBEBEB"/>
<path d="M867.739 541.325H829.418V626.641H867.739V541.325Z" fill="#EBEBEB"/>
<path d="M728.003 676.005H689.683V761.32H728.003V676.005Z" fill="#EBEBEB"/>
<path d="M937.593 676.005H899.273V761.32H937.593V676.005Z" fill="#EBEBEB"/>
<path d="M797.858 676.005H759.538V761.32H797.858V676.005Z" fill="#EBEBEB"/>
<path d="M867.739 676.005H829.418V761.32H867.739V676.005Z" fill="#EBEBEB"/>
<path d="M664.988 370.348H501.222V870.666H664.988V370.348Z" fill="#E6E6E6"/>
<path d="M1034.67 423.917H962.315V870.639H1034.67V423.917Z" fill="#E6E6E6"/>
<path d="M245.675 870.639H102.347V661.768L245.675 613.282V870.639Z" fill="#E6E6E6"/>
<path d="M665.28 991.428C950.24 991.428 1181.25 972.496 1181.25 949.142C1181.25 925.789 950.24 906.857 665.28 906.857C380.321 906.857 149.315 925.789 149.315 949.142C149.315 972.496 380.321 991.428 665.28 991.428Z" fill="#F5F5F5"/>
<path d="M792.163 782.157H746.924C723.373 782.157 704.346 816.299 704.346 858.425C704.346 900.55 723.426 934.666 746.924 934.666H792.163C815.714 934.666 834.741 900.524 834.741 858.425C834.741 816.326 815.714 782.157 792.163 782.157Z" fill="#263238"/>
<path opacity="0.05" d="M845.385 782.157H800.146C776.595 782.157 757.568 816.299 757.568 858.425C757.568 900.55 776.648 934.666 800.146 934.666H845.385C868.936 934.666 887.963 900.524 887.963 858.425C887.963 816.326 868.936 782.157 845.385 782.157Z" fill="white"/>
<path d="M1158.63 798.496L366.437 797.937V291.925H1158.63V798.496Z" fill="#49A078"/>
<path opacity="0.3" d="M1158.63 291.925H621.718V798.47H1158.63V291.925Z" fill="#263238"/>
<path opacity="0.2" d="M621.718 291.925H366.437V808.475H621.718V291.925Z" fill="white"/>
<path opacity="0.1" d="M368.353 315.449H1158.63" stroke="white" stroke-width="2" stroke-linecap="round" stroke-linejoin="round"/>
<path opacity="0.1" d="M368.353 337.35H1158.63" stroke="white" stroke-width="2" stroke-linecap="round" stroke-linejoin="round"/>
<path opacity="0.1" d="M368.353 359.225H1158.63" stroke="white" stroke-width="2" stroke-linecap="round" stroke-linejoin="round"/>
<path opacity="0.1" d="M368.353 381.099H1158.63" stroke="white" stroke-width="2" stroke-linecap="round" stroke-linejoin="round"/>
<path opacity="0.1" d="M368.353 403H1158.63" stroke="white" stroke-width="2" stroke-linecap="round" stroke-linejoin="round"/>
<path opacity="0.1" d="M368.353 424.875H1158.63" stroke="white" stroke-width="2" stroke-linecap="round" stroke-linejoin="round"/>
<path opacity="0.1" d="M368.353 446.749H1158.63" stroke="white" stroke-width="2" stroke-linecap="round" stroke-linejoin="round"/>
<path opacity="0.1" d="M368.353 468.624H1158.63" stroke="white" stroke-width="2" stroke-linecap="round" stroke-linejoin="round"/>
<path opacity="0.1" d="M368.353 490.525H1158.63" stroke="white" stroke-width="2" stroke-linecap="round" stroke-linejoin="round"/>
<path opacity="0.1" d="M368.353 512.399H1158.63" stroke="white" stroke-width="2" stroke-linecap="round" stroke-linejoin="round"/>
<path opacity="0.1" d="M368.353 534.273H1158.63" stroke="white" stroke-width="2" stroke-linecap="round" stroke-linejoin="round"/>
<path opacity="0.1" d="M368.353 556.174H1158.63" stroke="white" stroke-width="2" stroke-linecap="round" stroke-linejoin="round"/>
<path opacity="0.1" d="M368.353 578.049H1158.63" stroke="white" stroke-width="2" stroke-linecap="round" stroke-linejoin="round"/>
<path opacity="0.1" d="M368.353 599.923H1158.63" stroke="white" stroke-width="2" stroke-linecap="round" stroke-linejoin="round"/>
<path opacity="0.1" d="M368.353 621.798H1158.63" stroke="white" stroke-width="2" stroke-linecap="round" stroke-linejoin="round"/>
<path opacity="0.1" d="M368.353 643.699H1158.63" stroke="white" stroke-width="2" stroke-linecap="round" stroke-linejoin="round"/>
<path opacity="0.1" d="M368.353 665.573H1158.63" stroke="white" stroke-width="2" stroke-linecap="round" stroke-linejoin="round"/>
<path opacity="0.1" d="M368.353 687.448H1158.63" stroke="white" stroke-width="2" stroke-linecap="round" stroke-linejoin="round"/>
<path opacity="0.1" d="M368.353 709.349H1158.63" stroke="white" stroke-width="2" stroke-linecap="round" stroke-linejoin="round"/>
<path opacity="0.1" d="M368.353 731.223H1158.63" stroke="white" stroke-width="2" stroke-linecap="round" stroke-linejoin="round"/>
<path opacity="0.1" d="M368.353 753.097H1158.63" stroke="white" stroke-width="2" stroke-linecap="round" stroke-linejoin="round"/>
<path opacity="0.1" d="M368.353 774.999H1158.63" stroke="white" stroke-width="2" stroke-linecap="round" stroke-linejoin="round"/>
<path d="M221.059 792.109H179.2C157.379 792.109 139.709 823.724 139.709 862.736C139.709 901.748 157.379 933.335 179.2 933.335H221.059C242.88 933.335 260.55 901.721 260.55 862.736C260.55 823.75 242.88 792.109 221.059 792.109Z" fill="#263238"/>
<path opacity="0.05" d="M274.308 792.109H232.422C210.601 792.109 192.931 823.724 192.931 862.736C192.931 901.748 210.601 933.335 232.422 933.335H274.308C296.103 933.335 313.799 901.721 313.799 862.736C313.799 823.75 296.103 792.109 274.308 792.109Z" fill="white"/>
<path d="M197.775 654.184H177.976C174.091 654.317 170.897 650.165 170.817 644.896C170.764 644.348 170.764 643.795 170.817 643.246L176.14 583.451C176.805 577.304 180.61 572.807 185.187 572.514H205.172C209.031 572.514 212.224 576.585 212.304 581.854C212.304 582.387 212.304 582.919 212.304 583.451L206.982 643.246C206.184 649.314 202.245 654.024 197.775 654.184Z" fill="#263238"/>
<path d="M217.573 456.675L179.386 662.619L595.133 825.48L592.233 419.606L500.797 416.945H250.332C235.27 416.811 221.991 432.991 217.573 456.675Z" fill="#49A078"/>
<path d="M526.902 489.806C511.387 489.114 497.47 501.834 492.919 520.808L461.465 652.587H400.924L397.625 826.438H596.756" fill="#49A078"/>
<path d="M223.534 641.517C217.44 641.517 212.517 633.693 212.517 624.06C212.514 622.38 212.675 620.705 212.996 619.057L235.855 498.135C237.771 488.103 243.626 481.237 250.252 481.264H468.943C471.311 481.264 473.254 484.298 473.254 488.076C473.259 488.746 473.197 489.415 473.068 490.072C468.278 514.98 452.71 597.502 446.749 629.063C445.365 636.461 441.054 641.517 436.105 641.517H223.534Z" fill="#263238"/>
<path d="M424.768 695.112C424.764 697.231 424.613 699.347 424.316 701.445L423.172 709.242L422.506 713.846L417.61 747.483L409.626 802.169L407.418 817.364H97.9558V802.169L98.1687 747.483L98.4614 714.777V701.472C95.8003 683.908 104.289 666.877 117.222 663.338C118.74 662.924 120.306 662.718 121.879 662.726H400.925C414.097 662.619 424.768 677.202 424.768 695.112Z" fill="#49A078"/>
<path d="M582.067 497.63V627.253C582.067 635.103 578.049 641.49 573.072 641.517H497.443C492.467 641.517 488.449 635.13 488.449 627.253C488.447 625.969 488.554 624.687 488.768 623.421L512.079 490.897C513.197 484.537 516.923 480.253 521.074 480.492L573.392 483.366C578.235 483.659 582.067 489.966 582.067 497.63Z" fill="#263238"/>
<path opacity="0.1" d="M351.108 481.264H309.329L261.349 641.517H303.155L351.108 481.264Z" fill="white"/>
<path opacity="0.1" d="M383.627 481.264H363.669L315.715 641.517H335.647L383.627 481.264Z" fill="white"/>
<path d="M504.948 747.483V802.169H98.009L98.2219 747.483H504.948Z" fill="black"/>
<path d="M448.266 747.483H410.638L342.965 787.24V802.169H504.948V747.483H448.266Z" fill="white"/>
<path d="M168.156 787.24V802.169H98.009L98.2219 747.483H100.51L168.156 787.24Z" fill="white"/>
<path opacity="0.3" d="M595.32 826.438L592.233 419.606L536.349 416.945C522.405 416.253 506.305 432.459 502.234 451.246L461.731 662.619H445.951C428.228 662.619 416.093 675.526 416.12 689.231L416.359 826.491H595.32" fill="#263238"/>
<path d="M423.73 711.158C423.725 711.663 423.613 712.161 423.402 712.619C423.191 713.078 422.886 713.487 422.506 713.819C421.856 714.423 420.999 714.757 420.111 714.751H98.4614V707.512H420.191C420.804 707.514 421.406 707.671 421.941 707.969C422.476 708.267 422.927 708.696 423.251 709.216C423.588 709.806 423.754 710.479 423.73 711.158Z" fill="white"/>
<path d="M155.197 707.539V714.777H98.355L98.3816 707.539H155.197Z" fill="#263238"/>
<path d="M423.73 711.158C423.724 711.663 423.613 712.161 423.402 712.619C423.191 713.078 422.886 713.487 422.506 713.819C421.855 714.423 420.999 714.757 420.111 714.751H342.087V707.512H420.111C420.724 707.514 421.326 707.671 421.861 707.969C422.396 708.267 422.847 708.696 423.171 709.216C423.536 709.798 423.729 710.471 423.73 711.158Z" fill="#263238"/>
<path d="M1172.84 811.642V813.079C1172.84 816.608 1171.43 819.992 1168.94 822.488C1166.44 824.983 1163.06 826.385 1159.53 826.385H102.533C99.004 826.385 95.6197 824.983 93.1244 822.488C90.6291 819.992 89.2273 816.608 89.2273 813.079V811.642C89.2273 808.113 90.6291 804.729 93.1244 802.234C95.6197 799.738 99.004 798.337 102.533 798.337H1159.53C1163.06 798.337 1166.44 799.738 1168.94 802.234C1171.43 804.729 1172.84 808.113 1172.84 811.642Z" fill="#263238"/>
<path d="M336.925 809.274H179.386V816.964H336.925V809.274Z" fill="black"/>
<path d="M137.473 813.106C137.473 813.973 137.216 814.821 136.735 815.542C136.254 816.264 135.57 816.827 134.769 817.16C133.968 817.493 133.087 817.581 132.236 817.414C131.385 817.247 130.602 816.831 129.987 816.22C129.372 815.608 128.952 814.829 128.779 813.979C128.607 813.129 128.69 812.247 129.018 811.444C129.347 810.641 129.905 809.953 130.624 809.468C131.342 808.982 132.189 808.72 133.056 808.715C133.635 808.711 134.209 808.822 134.744 809.041C135.28 809.261 135.767 809.583 136.178 809.992C136.588 810.4 136.914 810.885 137.137 811.419C137.359 811.954 137.473 812.527 137.473 813.106Z" fill="white"/>
<path d="M374.553 813.106C374.553 813.974 374.295 814.823 373.813 815.545C373.33 816.267 372.644 816.83 371.842 817.162C371.04 817.495 370.157 817.582 369.305 817.412C368.454 817.243 367.671 816.825 367.057 816.211C366.443 815.596 366.025 814.814 365.855 813.962C365.686 813.111 365.773 812.228 366.105 811.425C366.438 810.623 367 809.937 367.722 809.455C368.444 808.972 369.293 808.715 370.162 808.715C370.738 808.715 371.309 808.828 371.842 809.049C372.375 809.27 372.859 809.593 373.267 810.001C373.674 810.409 373.998 810.893 374.218 811.425C374.439 811.958 374.553 812.529 374.553 813.106Z" fill="white"/>
<path d="M501.861 856.695C501.861 814.357 521.047 780.028 544.731 780.028H499.253C475.595 780.028 456.409 814.357 456.409 856.695C456.409 899.033 475.595 933.335 499.253 933.335H544.731C521.047 933.415 501.861 899.113 501.861 856.695Z" fill="black"/>
<path opacity="0.7" d="M501.861 856.695C501.861 814.357 521.047 780.028 544.731 780.028H499.253C475.595 780.028 456.409 814.357 456.409 856.695C456.409 899.033 475.595 933.335 499.253 933.335H544.731C521.047 933.415 501.861 899.113 501.861 856.695Z" fill="#263238"/>
<path d="M544.732 933.442C568.408 933.442 587.602 899.117 587.602 856.775C587.602 814.433 568.408 780.108 544.732 780.108C521.055 780.108 501.861 814.433 501.861 856.775C501.861 899.117 521.055 933.442 544.732 933.442Z" fill="#263238"/>
<path d="M548.164 916.544C564.948 916.544 578.554 889.784 578.554 856.775C578.554 823.765 564.948 797.006 548.164 797.006C531.38 797.006 517.774 823.765 517.774 856.775C517.774 889.784 531.38 916.544 548.164 916.544Z" fill="white"/>
<path d="M545.397 908.507C561.46 908.507 574.483 885.346 574.483 856.775C574.483 828.204 561.46 805.042 545.397 805.042C529.333 805.042 516.311 828.204 516.311 856.775C516.311 885.346 529.333 908.507 545.397 908.507Z" fill="#263238"/>
<path d="M539.01 894.536C550.738 894.536 560.246 877.63 560.246 856.775C560.246 835.92 550.738 819.013 539.01 819.013C527.282 819.013 517.774 835.92 517.774 856.775C517.774 877.63 527.282 894.536 539.01 894.536Z" fill="black"/>
<path opacity="0.5" d="M1172.84 811.642V813.079C1172.84 816.608 1171.43 819.992 1168.94 822.488C1166.44 824.983 1163.06 826.385 1159.53 826.385H621.718V798.337H1159.53C1163.06 798.337 1166.44 799.738 1168.94 802.234C1171.43 804.729 1172.84 808.113 1172.84 811.642Z" fill="black"/>
<path d="M1005.69 856.695C1005.69 814.357 1024.88 780.028 1048.54 780.028H1003.08C979.399 780.028 960.212 814.357 960.212 856.695C960.212 899.033 979.399 933.335 1003.08 933.335H1048.48C1024.88 933.415 1005.69 899.113 1005.69 856.695Z" fill="black"/>
<path opacity="0.7" d="M1005.69 856.695C1005.69 814.357 1024.88 780.028 1048.54 780.028H1003.08C979.399 780.028 960.212 814.357 960.212 856.695C960.212 899.033 979.399 933.335 1003.08 933.335H1048.48C1024.88 933.415 1005.69 899.113 1005.69 856.695Z" fill="#263238"/>
<path d="M1048.54 933.442C1072.21 933.442 1091.41 899.117 1091.41 856.775C1091.41 814.433 1072.21 780.108 1048.54 780.108C1024.86 780.108 1005.66 814.433 1005.66 856.775C1005.66 899.117 1024.86 933.442 1048.54 933.442Z" fill="#263238"/>
<path d="M1051.99 916.544C1068.78 916.544 1082.38 889.784 1082.38 856.775C1082.38 823.765 1068.78 797.006 1051.99 797.006C1035.21 797.006 1021.6 823.765 1021.6 856.775C1021.6 889.784 1035.21 916.544 1051.99 916.544Z" fill="white"/>
<path d="M1049.2 908.507C1065.26 908.507 1078.29 885.346 1078.29 856.775C1078.29 828.204 1065.26 805.042 1049.2 805.042C1033.14 805.042 1020.11 828.204 1020.11 856.775C1020.11 885.346 1033.14 908.507 1049.2 908.507Z" fill="#263238"/>
<path d="M1042.81 894.536C1054.54 894.536 1064.05 877.63 1064.05 856.775C1064.05 835.92 1054.54 819.013 1042.81 819.013C1031.09 819.013 1021.58 835.92 1021.58 856.775C1021.58 877.63 1031.09 894.536 1042.81 894.536Z" fill="black"/>
<path d="M875.137 481.663C874.604 491.908 873.673 501.808 872.156 511.893C870.846 522.311 868.565 532.583 865.344 542.576C864.328 545.487 863.054 548.301 861.538 550.985C860.483 552.796 859.195 554.46 857.706 555.935L856.961 556.627L856.535 556.946L856.323 557.132L855.418 557.745L853.635 558.995C849.115 561.896 844.362 564.415 839.424 566.526C830.054 570.645 820.315 573.87 810.338 576.16L806.879 566.686C815.341 562.002 824.017 557.212 831.92 552.236C835.783 549.866 839.498 547.262 843.044 544.439L844.214 543.454L844.8 542.949C844.8 542.949 845.039 542.55 845.332 541.911C846.11 540.19 846.75 538.41 847.248 536.589C848.451 532.212 849.402 527.769 850.096 523.283C850.921 518.653 851.586 513.943 852.145 509.152C853.236 499.652 854.167 489.913 854.806 480.439L875.137 481.663Z" fill="#CE7A63"/>
<path d="M813.186 566.819L796.847 561.763L799.907 581.535C799.907 581.535 810.551 580.204 815.874 574.243L813.186 566.819Z" fill="#CE7A63"/>
<path d="M777.048 574.483L777.952 577.144C778.463 578.614 779.437 579.878 780.728 580.747C782.019 581.615 783.557 582.041 785.111 581.961L793.44 581.588L790.353 561.763L781.199 565.355C779.462 566.046 778.06 567.382 777.287 569.084C776.513 570.785 776.427 572.72 777.048 574.483Z" fill="#CE7A63"/>
<path d="M894.456 462.476C894.456 468.65 891.476 480.838 888.921 489.992C887.032 496.565 885.462 501.568 885.462 501.568L881.71 500.637L850.787 492.813C850.308 476.846 850.921 459.469 866.754 449.038C876.654 442.491 894.377 451.486 894.456 462.476Z" fill="#263238"/>
<path opacity="0.3" d="M894.43 463.541C892.407 461.412 887.83 461.039 877.851 464.206C863.561 468.73 859.569 484.377 859.383 494.995L881.71 500.637L883.626 501.143L885.462 501.568C885.462 501.568 886.234 499.067 887.351 495.261C887.804 493.718 888.362 491.908 888.895 489.939C891.558 481.331 893.411 472.494 894.43 463.541Z" fill="black"/>
<path d="M830.988 959.255L812.121 952.655L823.99 911.78L842.83 918.406L830.988 959.255Z" fill="#CE7A63"/>
<path d="M1083.08 910.822L1067.72 922.265L1036.29 890.411L1051.65 878.969L1083.08 910.822Z" fill="#CE7A63"/>
<path d="M1061.44 917.608L1078.02 903.903C1078.3 903.66 1078.66 903.526 1079.03 903.526C1079.4 903.526 1079.76 903.66 1080.04 903.903L1092.76 915.453C1093.05 915.737 1093.28 916.075 1093.43 916.447C1093.58 916.819 1093.66 917.218 1093.66 917.621C1093.66 918.024 1093.58 918.423 1093.43 918.796C1093.28 919.168 1093.05 919.506 1092.76 919.79L1092.5 920.03C1086.64 924.713 1083.56 926.682 1076.26 932.697C1071.79 936.396 1062.4 945.257 1056.2 950.367C1050 955.476 1044.62 949.648 1046.75 946.96C1056.25 934.932 1058.46 927.002 1059.58 920.509C1059.85 919.356 1060.51 918.332 1061.44 917.608Z" fill="#263238"/>
<path d="M810.844 946.747L831.813 955.502C832.187 955.666 832.499 955.946 832.7 956.301C832.901 956.656 832.983 957.067 832.931 957.472L830.563 975.966C830.47 976.707 830.087 977.38 829.498 977.839C828.91 978.298 828.163 978.505 827.423 978.415C827.147 978.386 826.878 978.314 826.624 978.202C819.2 975.195 815.714 973.704 806.506 969.846L778.245 958.004C770.581 954.784 772.231 946.375 775.584 946.987C791.098 949.808 801.104 948.876 807.225 946.561C807.81 946.352 808.432 946.26 809.053 946.292C809.674 946.324 810.283 946.479 810.844 946.747Z" fill="#263238"/>
<path opacity="0.2" d="M823.99 911.807L817.896 932.856L836.258 941.159L842.857 918.406L823.99 911.807Z" fill="black"/>
<path opacity="0.2" d="M1051.68 878.969L1036.29 890.411L1052.5 906.83L1067.86 895.388L1051.68 878.969Z" fill="black"/>
<path d="M952.469 562.375L874.764 563.493C864.12 503.325 861.459 474.611 861.459 460.8C861.445 457.355 862.634 454.014 864.82 451.352C867.006 448.69 870.052 446.874 873.434 446.217C878.17 445.286 884.078 444.221 890.012 443.396C892.035 443.13 894.084 442.864 896.106 442.651C907.842 441.645 919.634 441.476 931.393 442.145C933.149 442.145 934.879 442.305 936.715 442.412C944.699 442.917 951.99 443.928 957.179 444.727C959.046 445.027 960.716 446.057 961.824 447.589C962.932 449.121 963.386 451.03 963.087 452.896C963.1 453.029 963.1 453.163 963.087 453.296C960.798 463.94 958.936 473.387 957.445 481.796C955.077 495.102 953.587 505.959 952.708 515.433C951.378 531.049 951.298 546.746 952.469 562.375Z" fill="#263238"/>
<path opacity="0.1" d="M952.682 515.513C948.77 503.777 948.983 479.428 953.187 471.551L957.472 481.849C955.05 495.235 953.56 506.039 952.682 515.513Z" fill="black"/>
<path d="M874.764 563.493C874.764 563.493 861.458 676.617 849.457 747.11C839.956 802.302 815.953 917.182 815.953 917.182L847.115 928.226C847.115 928.226 882.801 808.476 889.054 757.329C914.202 683.589 932.297 562.934 932.297 562.934L874.764 563.493Z" fill="#49A078"/>
<path d="M810.897 924.899L846.956 937.593L851.772 926.017L812.654 911.062L810.897 924.899Z" fill="#263238"/>
<path opacity="0.1" d="M914.149 597.103L902.493 619.429C898.235 636.248 899.247 677.176 904.649 703.042C914.335 664.056 922.079 623.022 926.896 595.479L914.149 597.103Z" fill="black"/>
<path d="M891.636 563.493C891.636 563.493 905.553 690.109 931.553 760.416C944.592 795.675 1041.32 900.204 1041.32 900.204L1063.15 882.747C1063.15 882.747 1001.81 777.287 974.982 749.691C964.045 688.485 977.803 596.73 952.389 562.401L891.636 563.493Z" fill="#49A078"/>
<path d="M1043.16 907.682L1068.76 886.713L1061.84 875.35L1033.82 899.752L1043.16 907.682Z" fill="#263238"/>
<path d="M953.693 557.824L957.286 564.717C957.552 565.249 956.94 565.834 956.035 565.834L874.498 567.005C873.78 567.005 873.221 566.659 873.141 566.234L872.369 559.288C872.369 558.809 872.928 558.383 873.673 558.383L952.389 557.239C952.638 557.224 952.886 557.27 953.113 557.372C953.34 557.474 953.539 557.629 953.693 557.824Z" fill="#263238"/>
<path d="M943.129 566.819H945.284C945.683 566.819 946.003 566.58 945.976 566.34L944.832 557.292C944.832 557.026 944.459 556.84 944.033 556.84H942.038C941.612 556.84 941.292 557.079 941.346 557.319L942.463 566.34C942.33 566.553 942.729 566.819 943.129 566.819Z" fill="#49A078"/>
<path d="M880.353 567.671H882.482C882.907 567.671 883.2 567.431 883.173 567.165L882.082 558.144C882.082 557.878 881.657 557.665 881.231 557.665H879.102C878.676 557.665 878.357 557.904 878.383 558.17L879.501 567.192C879.554 567.458 879.927 567.671 880.353 567.671Z" fill="#49A078"/>
<path d="M911.754 567.165H913.883C914.308 567.165 914.628 566.925 914.601 566.659L913.483 557.638C913.483 557.345 913.084 557.132 912.658 557.159H910.53C910.104 557.159 909.811 557.399 909.811 557.665L910.929 566.686C910.902 567.005 911.328 567.165 911.754 567.165Z" fill="#49A078"/>
<path d="M770.768 483.845L886.101 468.011L902.067 581.242L788.81 596.783L770.768 483.845Z" fill="#49A078"/>
<path opacity="0.8" d="M770.768 483.845L886.101 468.011L902.067 581.242L788.81 596.783L770.768 483.845Z" fill="white"/>
<path opacity="0.2" d="M887.684 462.544L856.886 466.899L873.405 583.713L904.203 579.358L887.684 462.544Z" fill="#49A078"/>
<path d="M918.806 566.979L902.839 560.725L904.409 580.683C904.409 580.683 915.053 580.151 920.775 574.589L918.806 566.979Z" fill="#CE7A63"/>
<path d="M969.021 467.612C973.305 479.587 977.004 491.562 980.145 503.804C981.741 509.951 983.231 516.125 984.429 522.431C985.014 525.625 985.52 528.871 985.893 532.251C986.32 535.782 986.472 539.341 986.345 542.895C986.27 545.21 985.913 547.507 985.28 549.734C984.406 552.474 982.944 554.99 980.996 557.106C978.15 560.154 974.767 562.653 971.017 564.477C964.876 567.457 958.411 569.716 951.75 571.21C939.299 574.098 926.602 575.799 913.829 576.293L912.579 566.26C918.406 564.876 924.367 563.333 930.169 561.71C935.97 560.086 941.745 558.277 947.28 556.254C952.566 554.437 957.664 552.111 962.501 549.309C964.259 548.281 965.825 546.958 967.132 545.397C967.478 544.865 967.478 544.732 967.424 544.732C967.478 543.943 967.478 543.152 967.424 542.363C967.324 539.784 967.048 537.215 966.599 534.673C966.174 532.011 965.588 529.031 964.949 526.104C963.619 520.409 962.129 514.581 960.452 508.753C957.126 497.204 953.374 485.468 949.621 474.159L969.021 467.612Z" fill="#CE7A63"/>
<path d="M888.123 570.571L889.374 575.201C889.749 576.688 890.599 578.013 891.795 578.973C892.991 579.933 894.467 580.478 896 580.524L904.569 580.763L902.999 560.831L894.27 561.816C893.344 561.909 892.445 562.184 891.625 562.625C890.804 563.066 890.079 563.665 889.491 564.387C888.903 565.109 888.463 565.94 888.196 566.832C887.929 567.724 887.841 568.66 887.937 569.587C887.976 569.919 888.038 570.248 888.123 570.571Z" fill="#CE7A63"/>
<path d="M959.947 445.312C968.888 448.958 976.206 478.337 976.206 478.337L951.511 497.63C951.511 497.63 934.001 470.22 937.566 458.325C940.6 448.266 948.557 440.708 959.947 445.312Z" fill="#263238"/>
<path d="M1055.4 925.911H1055.08C1054.64 925.88 1054.2 925.737 1053.83 925.495C1053.45 925.253 1053.14 924.92 1052.93 924.527C1052.77 924.3 1052.67 924.036 1052.65 923.76C1052.63 923.484 1052.68 923.207 1052.79 922.957C1053.88 920.828 1060.78 919.976 1061.52 919.897C1061.61 919.88 1061.7 919.891 1061.78 919.93C1061.86 919.968 1061.93 920.031 1061.97 920.11C1062.02 920.184 1062.05 920.272 1062.05 920.362C1062.05 920.452 1062.02 920.54 1061.97 920.615C1060.54 922.558 1057.74 925.751 1055.4 925.911ZM1060.59 920.935C1057.93 921.334 1054.18 922.212 1053.64 923.383C1053.58 923.482 1053.55 923.597 1053.55 923.715C1053.55 923.833 1053.58 923.949 1053.64 924.048C1053.77 924.321 1053.97 924.555 1054.22 924.723C1054.47 924.892 1054.76 924.99 1055.06 925.006C1056.39 925.006 1058.51 923.569 1060.64 920.935H1060.59Z" fill="#263238"/>
<path d="M1061.2 920.748C1058.89 920.748 1054.26 919.923 1053.22 918.087C1053.05 917.768 1053 917.404 1053.07 917.051C1053.14 916.699 1053.32 916.379 1053.59 916.144C1053.83 915.887 1054.11 915.684 1054.44 915.55C1054.76 915.417 1055.11 915.356 1055.45 915.373C1058.25 915.373 1061.79 919.657 1061.89 919.897C1061.93 919.96 1061.96 920.034 1061.96 920.11C1061.96 920.185 1061.93 920.259 1061.89 920.322C1061.87 920.4 1061.83 920.47 1061.77 920.523C1061.7 920.575 1061.63 920.607 1061.55 920.615L1061.2 920.748ZM1055.29 916.331C1054.92 916.367 1054.57 916.537 1054.31 916.81C1053.91 917.235 1053.99 917.502 1054.1 917.714C1054.71 918.885 1058.35 919.843 1060.7 919.843C1059.36 918.169 1057.55 916.935 1055.51 916.304L1055.29 916.331Z" fill="#263238"/>
<path d="M800.119 946.322C798.64 945.839 797.348 944.909 796.42 943.66C796.21 943.292 796.081 942.883 796.045 942.46C796.008 942.037 796.064 941.611 796.208 941.212C796.28 940.982 796.412 940.776 796.589 940.612C796.767 940.449 796.984 940.335 797.219 940.281C799.667 939.828 805.442 946.029 806.559 947.28C806.612 947.358 806.64 947.451 806.64 947.546C806.64 947.641 806.612 947.733 806.559 947.812C806.515 947.896 806.443 947.962 806.356 948.001C806.27 948.039 806.172 948.048 806.08 948.025C804.041 947.66 802.044 947.089 800.119 946.322ZM798.283 941.319C798.01 941.187 797.707 941.132 797.405 941.159C797.405 941.159 797.166 941.159 797.059 941.478C796.952 941.755 796.911 942.053 796.938 942.349C796.966 942.644 797.062 942.929 797.219 943.181C798.044 944.618 800.891 945.976 804.936 946.854C803.038 944.676 800.811 942.809 798.336 941.319H798.283Z" fill="#263238"/>
<path d="M806.054 947.971H805.894C803.951 946.029 800.785 940.201 801.876 938.338C802.115 937.939 802.621 937.513 803.765 937.833C808.05 939.083 806.746 947.386 806.666 947.732C806.666 947.819 806.633 947.903 806.574 947.968C806.515 948.032 806.434 948.071 806.347 948.078C806.293 948.089 806.237 948.086 806.185 948.067C806.133 948.048 806.088 948.015 806.054 947.971ZM803.925 938.684H803.659C803.233 938.551 802.914 938.684 802.807 938.684C802.169 939.775 804.218 944.166 806.08 946.508C806.054 944.459 806.32 939.749 803.925 938.684Z" fill="#263238"/>
<path d="M886.366 362.525C886.366 362.525 875.722 380.328 883.705 388.125C891.689 395.922 894.031 368.273 894.031 368.273L886.366 362.525Z" fill="#263238"/>
<path d="M935.81 404.304C935.81 404.304 949.116 383.494 943.581 362.817C938.046 342.14 912.179 355.499 901.269 349.831C897.271 347.401 893.014 345.429 888.575 343.95C887.862 343.739 887.11 343.693 886.376 343.818C885.643 343.943 884.948 344.234 884.344 344.669C881.683 347.01 886.313 351.401 887.75 353.051C886.866 352.029 885.846 351.133 884.717 350.39C883.306 349.459 881.417 349.379 882.056 351.747C883.15 354.292 885.111 356.366 887.591 357.602C886.553 357.016 880.406 353.903 879.98 355.845C879.927 356.316 880.05 356.79 880.326 357.176C884.318 364.627 892.354 373.994 901.615 374.18C912.765 374.34 923.409 405.715 935.81 404.304Z" fill="#263238"/>
<path d="M940.52 405.236C939.828 412.261 929.397 412.341 929.397 412.341C927.689 416.362 924.851 419.801 921.227 422.24C920.907 426.483 921.049 430.748 921.653 434.96C923.409 441.587 925.645 443.875 928.439 445.365L926.204 447.574C921.925 450.043 917.091 451.388 912.153 451.486L909.226 449.783L905.394 450.395C894.749 446.909 897.41 439.75 897.41 439.75C899.352 434.889 899.456 429.488 897.703 424.555C887.484 421.362 883.306 412.474 881.869 397.518C880.432 382.563 888.841 368.246 888.841 368.246C900.391 379.396 923.276 372.238 923.276 372.238C922.292 393.207 932.085 400.951 932.085 400.951C935.305 398.077 941.186 398.237 940.52 405.236Z" fill="#CE7A63"/>
<path d="M903.371 407.152C906.118 406.383 908.491 404.643 910.051 402.255C910.177 402.067 910.225 401.837 910.185 401.614C910.145 401.39 910.021 401.191 909.838 401.058C909.747 400.991 909.644 400.942 909.535 400.915C909.425 400.888 909.312 400.883 909.2 400.901C909.089 400.918 908.982 400.957 908.886 401.016C908.79 401.075 908.706 401.153 908.64 401.244C907.742 402.858 906.351 404.142 904.67 404.909C902.989 405.675 901.107 405.883 899.3 405.502C899.084 405.435 898.852 405.457 898.652 405.561C898.453 405.666 898.303 405.846 898.235 406.061C898.168 406.279 898.188 406.516 898.293 406.72C898.397 406.924 898.577 407.079 898.794 407.152C900.295 407.544 901.871 407.544 903.371 407.152Z" fill="#263238"/>
<path d="M906.405 388.843C906.405 390.2 905.873 391.371 904.968 391.504C904.063 391.637 903.238 390.52 903.132 389.162C903.025 387.805 903.691 386.501 904.595 386.501C905.5 386.501 906.298 387.459 906.405 388.843Z" fill="#263238"/>
<path d="M890.119 388.151C890.119 389.508 889.587 390.679 888.682 390.812C887.777 390.945 886.979 389.828 886.872 388.471C886.766 387.113 887.405 385.943 888.309 385.809C889.214 385.676 890.039 386.767 890.119 388.151Z" fill="#263238"/>
<path d="M894.43 401.324L894.244 391.478L889.347 399.78C890.024 400.403 890.832 400.865 891.712 401.132C892.592 401.399 893.521 401.465 894.43 401.324Z" fill="#BA4D3C"/>
<path d="M913.829 380.54C913.945 380.509 914.054 380.455 914.149 380.381C914.279 380.304 914.392 380.203 914.481 380.081C914.571 379.96 914.635 379.822 914.67 379.675C914.705 379.529 914.709 379.376 914.684 379.228C914.658 379.079 914.603 378.937 914.521 378.811C913.635 377.325 912.349 376.119 910.811 375.328C909.273 374.538 907.543 374.195 905.819 374.34C905.67 374.356 905.525 374.403 905.393 374.476C905.262 374.55 905.147 374.65 905.055 374.769C904.963 374.888 904.896 375.025 904.858 375.171C904.82 375.316 904.812 375.468 904.835 375.617C904.874 375.917 905.031 376.189 905.27 376.373C905.51 376.557 905.812 376.64 906.112 376.602C907.399 376.522 908.683 376.797 909.823 377.398C910.964 377.999 911.917 378.902 912.579 380.008C912.703 380.219 912.891 380.384 913.116 380.48C913.341 380.576 913.591 380.597 913.829 380.54Z" fill="#263238"/>
<path d="M884.956 379.449C885.256 379.371 885.513 379.181 885.675 378.917C886.152 378.196 886.829 377.628 887.622 377.283C888.416 376.938 889.292 376.831 890.146 376.975C890.293 377.005 890.444 377.006 890.592 376.977C890.739 376.948 890.879 376.889 891.003 376.805C891.127 376.72 891.233 376.612 891.314 376.486C891.396 376.359 891.451 376.218 891.476 376.07C891.531 375.774 891.466 375.468 891.297 375.219C891.128 374.97 890.867 374.797 890.571 374.739C889.255 374.495 887.895 374.654 886.67 375.195C885.445 375.737 884.412 376.635 883.706 377.773C883.557 378.036 883.515 378.346 883.59 378.638C883.664 378.931 883.849 379.183 884.105 379.343C884.366 379.482 884.669 379.52 884.956 379.449Z" fill="#263238"/>
<path d="M932.776 446.297L927.055 451.885L916.863 461.891L913.031 455.797L909.226 449.783L922.531 433.923L932.218 445.632L932.776 446.297Z" fill="white"/>
<path d="M909.226 449.783L906.272 454.706L901.934 461.891L891.981 443.928L898.341 436.451L909.226 449.783Z" fill="white"/>
</svg>
